<mxfile host="Electron" agent="Mozilla/5.0 (Windows NT 10.0; Win64; x64) AppleWebKit/537.36 (KHTML, like Gecko) draw.io/25.0.2 Chrome/128.0.6613.186 Electron/32.2.5 Safari/537.36" version="25.0.2">
  <diagram name="Page-1" id="9xbgpJMtXrLHUt1e8muF">
    <mxGraphModel dx="2284" dy="3174" grid="1" gridSize="10" guides="1" tooltips="1" connect="1" arrows="1" fold="1" page="1" pageScale="1" pageWidth="850" pageHeight="1100" math="0" shadow="0">
      <root>
        <mxCell id="0" />
        <mxCell id="1" parent="0" />
        <mxCell id="ukiQFThfRHP9KPYJV5Xr-1" value="" style="rounded=1;whiteSpace=wrap;html=1;strokeWidth=3;arcSize=10;textOpacity=50;opacity=50;movable=1;resizable=1;rotatable=1;deletable=1;editable=1;locked=0;connectable=1;" vertex="1" parent="1">
          <mxGeometry x="817" y="380" width="740" height="420" as="geometry" />
        </mxCell>
        <mxCell id="ukiQFThfRHP9KPYJV5Xr-2" value="" style="rounded=1;whiteSpace=wrap;html=1;strokeWidth=3;arcSize=10;textOpacity=50;opacity=50;movable=1;resizable=1;rotatable=1;deletable=1;editable=1;locked=0;connectable=1;" vertex="1" parent="1">
          <mxGeometry x="1540" y="-1500" width="570" height="1240" as="geometry" />
        </mxCell>
        <mxCell id="ukiQFThfRHP9KPYJV5Xr-3" value="" style="rounded=1;whiteSpace=wrap;html=1;strokeWidth=3;arcSize=10;textOpacity=50;opacity=50;movable=0;resizable=0;rotatable=0;deletable=0;editable=0;locked=1;connectable=0;" vertex="1" parent="1">
          <mxGeometry x="540" y="-240" width="1580" height="550" as="geometry" />
        </mxCell>
        <mxCell id="ukiQFThfRHP9KPYJV5Xr-4" value="" style="rounded=1;whiteSpace=wrap;html=1;strokeWidth=3;arcSize=10;textOpacity=50;opacity=50;movable=0;resizable=0;rotatable=0;deletable=0;editable=0;locked=1;connectable=0;" vertex="1" parent="1">
          <mxGeometry x="-40" y="-530" width="390" height="1360" as="geometry" />
        </mxCell>
        <mxCell id="ukiQFThfRHP9KPYJV5Xr-5" value="" style="group" vertex="1" connectable="0" parent="1">
          <mxGeometry y="-440" width="310" height="160" as="geometry" />
        </mxCell>
        <mxCell id="ukiQFThfRHP9KPYJV5Xr-6" value="" style="rounded=1;whiteSpace=wrap;html=1;strokeWidth=3;" vertex="1" parent="ukiQFThfRHP9KPYJV5Xr-5">
          <mxGeometry width="310" height="160" as="geometry" />
        </mxCell>
        <mxCell id="ukiQFThfRHP9KPYJV5Xr-7" value="Backup/Log Restoration" style="text;html=1;align=center;verticalAlign=middle;whiteSpace=wrap;rounded=0;fontFamily=Nova Round;fontSize=16;fontStyle=1" vertex="1" parent="ukiQFThfRHP9KPYJV5Xr-5">
          <mxGeometry x="100" y="6" width="110" height="50" as="geometry" />
        </mxCell>
        <mxCell id="ukiQFThfRHP9KPYJV5Xr-8" value="&lt;font face=&quot;Nova Round&quot;&gt;&lt;b&gt;EMIS&lt;/b&gt;&lt;/font&gt;" style="shape=cylinder3;whiteSpace=wrap;html=1;boundedLbl=1;backgroundOutline=1;size=15;strokeWidth=3;" vertex="1" parent="ukiQFThfRHP9KPYJV5Xr-5">
          <mxGeometry x="15" y="60" width="60" height="80" as="geometry" />
        </mxCell>
        <mxCell id="ukiQFThfRHP9KPYJV5Xr-9" value="&lt;font face=&quot;Nova Round&quot;&gt;&lt;b&gt;RiO&lt;/b&gt;&lt;/font&gt;" style="shape=cylinder3;whiteSpace=wrap;html=1;boundedLbl=1;backgroundOutline=1;size=15;strokeWidth=3;" vertex="1" parent="ukiQFThfRHP9KPYJV5Xr-5">
          <mxGeometry x="159" y="60" width="60" height="80" as="geometry" />
        </mxCell>
        <mxCell id="ukiQFThfRHP9KPYJV5Xr-10" value="&lt;font face=&quot;Nova Round&quot;&gt;&lt;b&gt;Care&lt;/b&gt;&lt;/font&gt;&lt;div&gt;&lt;font face=&quot;Nova Round&quot;&gt;&lt;b&gt;Notes&lt;/b&gt;&lt;/font&gt;&lt;/div&gt;" style="shape=cylinder3;whiteSpace=wrap;html=1;boundedLbl=1;backgroundOutline=1;size=15;strokeWidth=3;" vertex="1" parent="ukiQFThfRHP9KPYJV5Xr-5">
          <mxGeometry x="230" y="60" width="60" height="80" as="geometry" />
        </mxCell>
        <mxCell id="ukiQFThfRHP9KPYJV5Xr-11" value="&lt;font face=&quot;Nova Round&quot;&gt;&lt;b&gt;Adastra&lt;/b&gt;&lt;/font&gt;" style="shape=cylinder3;whiteSpace=wrap;html=1;boundedLbl=1;backgroundOutline=1;size=15;strokeWidth=3;" vertex="1" parent="ukiQFThfRHP9KPYJV5Xr-5">
          <mxGeometry x="86" y="60" width="60" height="80" as="geometry" />
        </mxCell>
        <mxCell id="ukiQFThfRHP9KPYJV5Xr-12" value="Source Data" style="text;html=1;align=center;verticalAlign=middle;whiteSpace=wrap;rounded=0;fontFamily=Nova Round;fontStyle=1;fontSize=22;textOpacity=50;opacity=50;" vertex="1" parent="1">
          <mxGeometry x="40" y="-520" width="230" height="30" as="geometry" />
        </mxCell>
        <mxCell id="ukiQFThfRHP9KPYJV5Xr-13" value="" style="endArrow=none;html=1;rounded=0;strokeWidth=3;textOpacity=50;opacity=50;" edge="1" parent="1">
          <mxGeometry width="50" height="50" relative="1" as="geometry">
            <mxPoint x="-20" y="-479" as="sourcePoint" />
            <mxPoint x="330" y="-479" as="targetPoint" />
          </mxGeometry>
        </mxCell>
        <mxCell id="ukiQFThfRHP9KPYJV5Xr-14" value="" style="group" vertex="1" connectable="0" parent="1">
          <mxGeometry y="160" width="310" height="340" as="geometry" />
        </mxCell>
        <mxCell id="ukiQFThfRHP9KPYJV5Xr-15" value="" style="rounded=1;whiteSpace=wrap;html=1;strokeWidth=3;" vertex="1" parent="ukiQFThfRHP9KPYJV5Xr-14">
          <mxGeometry width="310" height="340" as="geometry" />
        </mxCell>
        <mxCell id="ukiQFThfRHP9KPYJV5Xr-16" value="Linked Server Access" style="text;html=1;align=center;verticalAlign=middle;whiteSpace=wrap;rounded=0;fontFamily=Nova Round;fontSize=16;fontStyle=1" vertex="1" parent="ukiQFThfRHP9KPYJV5Xr-14">
          <mxGeometry x="95" y="4" width="110" height="50" as="geometry" />
        </mxCell>
        <mxCell id="ukiQFThfRHP9KPYJV5Xr-17" value="" style="group" vertex="1" connectable="0" parent="ukiQFThfRHP9KPYJV5Xr-14">
          <mxGeometry x="10" y="190" width="290" height="120" as="geometry" />
        </mxCell>
        <mxCell id="ukiQFThfRHP9KPYJV5Xr-18" value="" style="rounded=1;whiteSpace=wrap;html=1;strokeWidth=3;" vertex="1" parent="ukiQFThfRHP9KPYJV5Xr-17">
          <mxGeometry width="290" height="120" as="geometry" />
        </mxCell>
        <mxCell id="ukiQFThfRHP9KPYJV5Xr-19" value="Alternative Engine Based" style="text;html=1;align=center;verticalAlign=middle;whiteSpace=wrap;rounded=0;fontFamily=Nova Round;fontSize=12;fontStyle=1" vertex="1" parent="ukiQFThfRHP9KPYJV5Xr-17">
          <mxGeometry x="40" y="6" width="200" height="20" as="geometry" />
        </mxCell>
        <mxCell id="ukiQFThfRHP9KPYJV5Xr-20" value="&lt;font face=&quot;Nova Round&quot;&gt;&lt;b&gt;Think Learning&lt;/b&gt;&lt;/font&gt;" style="shape=cylinder3;whiteSpace=wrap;html=1;boundedLbl=1;backgroundOutline=1;size=15;strokeWidth=3;" vertex="1" parent="ukiQFThfRHP9KPYJV5Xr-17">
          <mxGeometry x="40" y="30" width="60" height="80" as="geometry" />
        </mxCell>
        <mxCell id="ukiQFThfRHP9KPYJV5Xr-21" value="&lt;font face=&quot;Nova Round&quot;&gt;&lt;b&gt;Allocate&lt;/b&gt;&lt;/font&gt;" style="shape=cylinder3;whiteSpace=wrap;html=1;boundedLbl=1;backgroundOutline=1;size=15;strokeWidth=3;" vertex="1" parent="ukiQFThfRHP9KPYJV5Xr-17">
          <mxGeometry x="110" y="30" width="60" height="80" as="geometry" />
        </mxCell>
        <mxCell id="ukiQFThfRHP9KPYJV5Xr-22" value="&lt;font face=&quot;Nova Round&quot;&gt;&lt;b&gt;ePMA&lt;/b&gt;&lt;/font&gt;" style="shape=cylinder3;whiteSpace=wrap;html=1;boundedLbl=1;backgroundOutline=1;size=15;strokeWidth=3;" vertex="1" parent="ukiQFThfRHP9KPYJV5Xr-17">
          <mxGeometry x="180" y="30" width="60" height="80" as="geometry" />
        </mxCell>
        <mxCell id="ukiQFThfRHP9KPYJV5Xr-23" value="" style="group" vertex="1" connectable="0" parent="ukiQFThfRHP9KPYJV5Xr-14">
          <mxGeometry x="10" y="60" width="290" height="120" as="geometry" />
        </mxCell>
        <mxCell id="ukiQFThfRHP9KPYJV5Xr-24" value="" style="rounded=1;whiteSpace=wrap;html=1;strokeWidth=3;" vertex="1" parent="ukiQFThfRHP9KPYJV5Xr-23">
          <mxGeometry width="290" height="120" as="geometry" />
        </mxCell>
        <mxCell id="ukiQFThfRHP9KPYJV5Xr-25" value="SQL Server Based" style="text;html=1;align=center;verticalAlign=middle;whiteSpace=wrap;rounded=0;fontFamily=Nova Round;fontSize=12;fontStyle=1" vertex="1" parent="ukiQFThfRHP9KPYJV5Xr-23">
          <mxGeometry x="85" y="7" width="110" height="20" as="geometry" />
        </mxCell>
        <mxCell id="ukiQFThfRHP9KPYJV5Xr-26" value="&lt;font face=&quot;Nova Round&quot;&gt;&lt;b&gt;sys2000&lt;/b&gt;&lt;/font&gt;" style="shape=cylinder3;whiteSpace=wrap;html=1;boundedLbl=1;backgroundOutline=1;size=15;strokeWidth=3;" vertex="1" parent="ukiQFThfRHP9KPYJV5Xr-23">
          <mxGeometry x="110" y="30" width="60" height="80" as="geometry" />
        </mxCell>
        <mxCell id="ukiQFThfRHP9KPYJV5Xr-27" value="&lt;font face=&quot;Nova Round&quot;&gt;&lt;b&gt;hrforms&lt;/b&gt;&lt;/font&gt;" style="shape=cylinder3;whiteSpace=wrap;html=1;boundedLbl=1;backgroundOutline=1;size=15;strokeWidth=3;" vertex="1" parent="ukiQFThfRHP9KPYJV5Xr-23">
          <mxGeometry x="180" y="30" width="60" height="80" as="geometry" />
        </mxCell>
        <mxCell id="ukiQFThfRHP9KPYJV5Xr-28" value="&lt;font face=&quot;Nova Round&quot;&gt;&lt;b&gt;Ulysses&lt;/b&gt;&lt;/font&gt;" style="shape=cylinder3;whiteSpace=wrap;html=1;boundedLbl=1;backgroundOutline=1;size=15;strokeWidth=3;" vertex="1" parent="ukiQFThfRHP9KPYJV5Xr-23">
          <mxGeometry x="40" y="30" width="60" height="80" as="geometry" />
        </mxCell>
        <mxCell id="ukiQFThfRHP9KPYJV5Xr-29" value="" style="group" vertex="1" connectable="0" parent="1">
          <mxGeometry y="540" width="310" height="240" as="geometry" />
        </mxCell>
        <mxCell id="ukiQFThfRHP9KPYJV5Xr-30" value="" style="rounded=1;whiteSpace=wrap;html=1;strokeWidth=3;" vertex="1" parent="ukiQFThfRHP9KPYJV5Xr-29">
          <mxGeometry width="310" height="240" as="geometry" />
        </mxCell>
        <mxCell id="ukiQFThfRHP9KPYJV5Xr-31" value="Files" style="text;html=1;align=center;verticalAlign=middle;whiteSpace=wrap;rounded=0;fontFamily=Nova Round;fontSize=16;fontStyle=1" vertex="1" parent="ukiQFThfRHP9KPYJV5Xr-29">
          <mxGeometry x="100" y="10" width="110" height="30" as="geometry" />
        </mxCell>
        <mxCell id="ukiQFThfRHP9KPYJV5Xr-32" value="&lt;font face=&quot;Nova Round&quot;&gt;&lt;b&gt;Domino&lt;/b&gt;&lt;/font&gt;" style="shape=card;whiteSpace=wrap;html=1;strokeWidth=3;size=20;" vertex="1" parent="ukiQFThfRHP9KPYJV5Xr-29">
          <mxGeometry x="20" y="50" width="60" height="80" as="geometry" />
        </mxCell>
        <mxCell id="ukiQFThfRHP9KPYJV5Xr-33" value="&lt;font face=&quot;Nova Round&quot;&gt;&lt;b&gt;ESR&lt;/b&gt;&lt;/font&gt;" style="shape=card;whiteSpace=wrap;html=1;strokeWidth=3;size=20;" vertex="1" parent="ukiQFThfRHP9KPYJV5Xr-29">
          <mxGeometry x="90" y="50" width="60" height="80" as="geometry" />
        </mxCell>
        <mxCell id="ukiQFThfRHP9KPYJV5Xr-34" value="&lt;font face=&quot;Nova Round&quot;&gt;&lt;b&gt;I Want Great Care&lt;/b&gt;&lt;/font&gt;" style="shape=card;whiteSpace=wrap;html=1;strokeWidth=3;size=20;" vertex="1" parent="ukiQFThfRHP9KPYJV5Xr-29">
          <mxGeometry x="160" y="50" width="60" height="80" as="geometry" />
        </mxCell>
        <mxCell id="ukiQFThfRHP9KPYJV5Xr-35" value="&lt;font face=&quot;Nova Round&quot;&gt;&lt;b&gt;Master Hierarchy&lt;/b&gt;&lt;/font&gt;" style="shape=card;whiteSpace=wrap;html=1;strokeWidth=3;size=20;" vertex="1" parent="ukiQFThfRHP9KPYJV5Xr-29">
          <mxGeometry x="230" y="50" width="60" height="80" as="geometry" />
        </mxCell>
        <mxCell id="ukiQFThfRHP9KPYJV5Xr-36" value="&lt;font face=&quot;Nova Round&quot;&gt;&lt;b&gt;True Colours&lt;/b&gt;&lt;/font&gt;" style="shape=card;whiteSpace=wrap;html=1;strokeWidth=3;size=20;" vertex="1" parent="ukiQFThfRHP9KPYJV5Xr-29">
          <mxGeometry x="20" y="140" width="60" height="80" as="geometry" />
        </mxCell>
        <mxCell id="ukiQFThfRHP9KPYJV5Xr-37" value="&lt;font face=&quot;Nova Round&quot;&gt;&lt;b&gt;WFMS&lt;/b&gt;&lt;/font&gt;" style="shape=card;whiteSpace=wrap;html=1;strokeWidth=3;size=20;" vertex="1" parent="ukiQFThfRHP9KPYJV5Xr-29">
          <mxGeometry x="230" y="140" width="60" height="80" as="geometry" />
        </mxCell>
        <mxCell id="ukiQFThfRHP9KPYJV5Xr-38" value="&lt;font face=&quot;Nova Round&quot;&gt;&lt;b&gt;HR&lt;/b&gt;&lt;/font&gt;" style="shape=card;whiteSpace=wrap;html=1;strokeWidth=3;size=20;" vertex="1" parent="ukiQFThfRHP9KPYJV5Xr-29">
          <mxGeometry x="90" y="140" width="60" height="80" as="geometry" />
        </mxCell>
        <mxCell id="ukiQFThfRHP9KPYJV5Xr-39" value="&lt;font face=&quot;Nova Round&quot;&gt;&lt;b&gt;Waits Config&lt;/b&gt;&lt;/font&gt;" style="shape=card;whiteSpace=wrap;html=1;strokeWidth=3;size=20;" vertex="1" parent="ukiQFThfRHP9KPYJV5Xr-29">
          <mxGeometry x="160" y="140" width="60" height="80" as="geometry" />
        </mxCell>
        <mxCell id="ukiQFThfRHP9KPYJV5Xr-40" value="&lt;font face=&quot;Nova Round&quot;&gt;&lt;b&gt;Managed Instance&lt;/b&gt;&lt;/font&gt;" style="shape=cylinder3;whiteSpace=wrap;html=1;boundedLbl=1;backgroundOutline=1;size=15;strokeWidth=3;" vertex="1" parent="1">
          <mxGeometry x="600" y="-110" width="60" height="80" as="geometry" />
        </mxCell>
        <mxCell id="ukiQFThfRHP9KPYJV5Xr-41" value="" style="group" vertex="1" connectable="0" parent="1">
          <mxGeometry x="770" y="-160" width="180" height="180" as="geometry" />
        </mxCell>
        <mxCell id="ukiQFThfRHP9KPYJV5Xr-42" value="" style="rounded=1;whiteSpace=wrap;html=1;strokeWidth=3;movable=1;resizable=1;rotatable=1;deletable=1;editable=1;locked=0;connectable=1;" vertex="1" parent="ukiQFThfRHP9KPYJV5Xr-41">
          <mxGeometry width="180" height="180" as="geometry" />
        </mxCell>
        <mxCell id="ukiQFThfRHP9KPYJV5Xr-43" value="" style="points=[];aspect=fixed;html=1;align=center;shadow=0;dashed=0;fillColor=#000000;strokeColor=none;shape=mxgraph.alibaba_cloud.dlf_data_lake_formation;" vertex="1" parent="ukiQFThfRHP9KPYJV5Xr-41">
          <mxGeometry x="50.01999999999998" y="70" width="79.95" height="75" as="geometry" />
        </mxCell>
        <mxCell id="ukiQFThfRHP9KPYJV5Xr-44" value="Raw Lakehouse" style="text;html=1;align=center;verticalAlign=middle;whiteSpace=wrap;rounded=0;fontFamily=Nova Round;fontSize=16;fontStyle=1" vertex="1" parent="ukiQFThfRHP9KPYJV5Xr-41">
          <mxGeometry y="10" width="180" height="50" as="geometry" />
        </mxCell>
        <mxCell id="ukiQFThfRHP9KPYJV5Xr-45" value="" style="group" vertex="1" connectable="0" parent="1">
          <mxGeometry x="1060" y="-160" width="180" height="180" as="geometry" />
        </mxCell>
        <mxCell id="ukiQFThfRHP9KPYJV5Xr-46" value="" style="rounded=1;whiteSpace=wrap;html=1;strokeWidth=3;movable=1;resizable=1;rotatable=1;deletable=1;editable=1;locked=0;connectable=1;" vertex="1" parent="ukiQFThfRHP9KPYJV5Xr-45">
          <mxGeometry width="180" height="180" as="geometry" />
        </mxCell>
        <mxCell id="ukiQFThfRHP9KPYJV5Xr-47" value="" style="points=[];aspect=fixed;html=1;align=center;shadow=0;dashed=0;fillColor=#000000;strokeColor=none;shape=mxgraph.alibaba_cloud.dlf_data_lake_formation;" vertex="1" parent="ukiQFThfRHP9KPYJV5Xr-45">
          <mxGeometry x="50.01999999999998" y="70" width="79.95" height="75" as="geometry" />
        </mxCell>
        <mxCell id="ukiQFThfRHP9KPYJV5Xr-48" value="Business Layer" style="text;html=1;align=center;verticalAlign=middle;whiteSpace=wrap;rounded=0;fontFamily=Nova Round;fontSize=16;fontStyle=1" vertex="1" parent="ukiQFThfRHP9KPYJV5Xr-45">
          <mxGeometry y="10" width="180" height="50" as="geometry" />
        </mxCell>
        <mxCell id="ukiQFThfRHP9KPYJV5Xr-49" value="" style="group" vertex="1" connectable="0" parent="1">
          <mxGeometry x="1340" y="-160" width="180" height="180" as="geometry" />
        </mxCell>
        <mxCell id="ukiQFThfRHP9KPYJV5Xr-50" value="" style="rounded=1;whiteSpace=wrap;html=1;strokeWidth=3;movable=1;resizable=1;rotatable=1;deletable=1;editable=1;locked=0;connectable=1;" vertex="1" parent="ukiQFThfRHP9KPYJV5Xr-49">
          <mxGeometry width="180" height="180" as="geometry" />
        </mxCell>
        <mxCell id="ukiQFThfRHP9KPYJV5Xr-51" value="" style="points=[];aspect=fixed;html=1;align=center;shadow=0;dashed=0;fillColor=#000000;strokeColor=none;shape=mxgraph.alibaba_cloud.dlf_data_lake_formation;" vertex="1" parent="ukiQFThfRHP9KPYJV5Xr-49">
          <mxGeometry x="50.01999999999998" y="70" width="79.95" height="75" as="geometry" />
        </mxCell>
        <mxCell id="ukiQFThfRHP9KPYJV5Xr-52" value="Data Warehouse" style="text;html=1;align=center;verticalAlign=middle;whiteSpace=wrap;rounded=0;fontFamily=Nova Round;fontSize=16;fontStyle=1" vertex="1" parent="ukiQFThfRHP9KPYJV5Xr-49">
          <mxGeometry y="10" width="180" height="50" as="geometry" />
        </mxCell>
        <mxCell id="ukiQFThfRHP9KPYJV5Xr-53" value="" style="group" vertex="1" connectable="0" parent="1">
          <mxGeometry x="1340" y="90" width="180" height="180" as="geometry" />
        </mxCell>
        <mxCell id="ukiQFThfRHP9KPYJV5Xr-54" value="" style="rounded=1;whiteSpace=wrap;html=1;strokeWidth=3;movable=1;resizable=1;rotatable=1;deletable=1;editable=1;locked=0;connectable=1;" vertex="1" parent="ukiQFThfRHP9KPYJV5Xr-53">
          <mxGeometry width="180" height="180" as="geometry" />
        </mxCell>
        <mxCell id="ukiQFThfRHP9KPYJV5Xr-55" value="" style="points=[];aspect=fixed;html=1;align=center;shadow=0;dashed=0;fillColor=#000000;strokeColor=none;shape=mxgraph.alibaba_cloud.dlf_data_lake_formation;" vertex="1" parent="ukiQFThfRHP9KPYJV5Xr-53">
          <mxGeometry x="50.01999999999998" y="70" width="79.95" height="75" as="geometry" />
        </mxCell>
        <mxCell id="ukiQFThfRHP9KPYJV5Xr-56" value="Submissions" style="text;html=1;align=center;verticalAlign=middle;whiteSpace=wrap;rounded=0;fontFamily=Nova Round;fontSize=16;fontStyle=1" vertex="1" parent="ukiQFThfRHP9KPYJV5Xr-53">
          <mxGeometry y="10" width="180" height="50" as="geometry" />
        </mxCell>
        <mxCell id="ukiQFThfRHP9KPYJV5Xr-57" value="" style="group" vertex="1" connectable="0" parent="1">
          <mxGeometry x="1610" y="-160" width="180" height="180" as="geometry" />
        </mxCell>
        <mxCell id="ukiQFThfRHP9KPYJV5Xr-58" value="" style="rounded=1;whiteSpace=wrap;html=1;strokeWidth=3;movable=1;resizable=1;rotatable=1;deletable=1;editable=1;locked=0;connectable=1;" vertex="1" parent="ukiQFThfRHP9KPYJV5Xr-57">
          <mxGeometry width="180" height="180" as="geometry" />
        </mxCell>
        <mxCell id="ukiQFThfRHP9KPYJV5Xr-59" value="Semantic Layer" style="text;html=1;align=center;verticalAlign=middle;whiteSpace=wrap;rounded=0;fontFamily=Nova Round;fontSize=16;fontStyle=1" vertex="1" parent="ukiQFThfRHP9KPYJV5Xr-57">
          <mxGeometry y="10" width="180" height="50" as="geometry" />
        </mxCell>
        <mxCell id="ukiQFThfRHP9KPYJV5Xr-60" value="" style="group" vertex="1" connectable="0" parent="ukiQFThfRHP9KPYJV5Xr-57">
          <mxGeometry x="27" y="62.000000000000114" width="129" height="97.76000000000005" as="geometry" />
        </mxCell>
        <mxCell id="ukiQFThfRHP9KPYJV5Xr-61" value="" style="sketch=0;outlineConnect=0;fontColor=#232F3E;gradientColor=none;fillColor=#000000;strokeColor=none;dashed=0;verticalLabelPosition=bottom;verticalAlign=top;align=center;html=1;fontSize=12;fontStyle=0;aspect=fixed;pointerEvents=1;shape=mxgraph.aws4.iot_sitewise_asset_model;" vertex="1" parent="ukiQFThfRHP9KPYJV5Xr-60">
          <mxGeometry x="1" width="58" height="58" as="geometry" />
        </mxCell>
        <mxCell id="ukiQFThfRHP9KPYJV5Xr-62" value="TOBI" style="text;html=1;align=center;verticalAlign=middle;whiteSpace=wrap;rounded=0;fontStyle=1;fontFamily=Nova Round;" vertex="1" parent="ukiQFThfRHP9KPYJV5Xr-60">
          <mxGeometry y="60.31999999999999" width="60" height="31.20000000000001" as="geometry" />
        </mxCell>
        <mxCell id="ukiQFThfRHP9KPYJV5Xr-63" value="" style="sketch=0;outlineConnect=0;fontColor=#232F3E;gradientColor=none;fillColor=#000000;strokeColor=none;dashed=0;verticalLabelPosition=bottom;verticalAlign=top;align=center;html=1;fontSize=12;fontStyle=0;aspect=fixed;pointerEvents=1;shape=mxgraph.aws4.iot_sitewise_asset_model;" vertex="1" parent="ukiQFThfRHP9KPYJV5Xr-60">
          <mxGeometry x="70" width="58" height="58" as="geometry" />
        </mxCell>
        <mxCell id="ukiQFThfRHP9KPYJV5Xr-64" value="Data Dictionary" style="text;html=1;align=center;verticalAlign=middle;whiteSpace=wrap;rounded=0;fontStyle=1;fontFamily=Nova Round;" vertex="1" parent="ukiQFThfRHP9KPYJV5Xr-60">
          <mxGeometry x="70" y="66.56" width="59" height="31.20000000000001" as="geometry" />
        </mxCell>
        <mxCell id="ukiQFThfRHP9KPYJV5Xr-65" value="" style="group" vertex="1" connectable="0" parent="1">
          <mxGeometry x="1350" y="420" width="160" height="260" as="geometry" />
        </mxCell>
        <mxCell id="ukiQFThfRHP9KPYJV5Xr-66" value="" style="rounded=1;whiteSpace=wrap;html=1;strokeWidth=3;" vertex="1" parent="ukiQFThfRHP9KPYJV5Xr-65">
          <mxGeometry width="160" height="260" as="geometry" />
        </mxCell>
        <mxCell id="ukiQFThfRHP9KPYJV5Xr-67" value="" style="group" vertex="1" connectable="0" parent="ukiQFThfRHP9KPYJV5Xr-65">
          <mxGeometry x="20" y="62.40000000000002" width="120" height="176.80000000000007" as="geometry" />
        </mxCell>
        <mxCell id="ukiQFThfRHP9KPYJV5Xr-68" value="" style="html=1;verticalLabelPosition=bottom;align=center;labelBackgroundColor=#ffffff;verticalAlign=top;strokeWidth=3;strokeColor=#000000;shadow=0;dashed=0;shape=mxgraph.ios7.icons.down;" vertex="1" parent="ukiQFThfRHP9KPYJV5Xr-67">
          <mxGeometry x="5" width="50" height="57.19999999999999" as="geometry" />
        </mxCell>
        <mxCell id="ukiQFThfRHP9KPYJV5Xr-69" value="ECDS" style="text;html=1;align=center;verticalAlign=middle;whiteSpace=wrap;rounded=0;fontStyle=1;fontFamily=Nova Round;" vertex="1" parent="ukiQFThfRHP9KPYJV5Xr-67">
          <mxGeometry y="57.19999999999999" width="60" height="31.20000000000001" as="geometry" />
        </mxCell>
        <mxCell id="ukiQFThfRHP9KPYJV5Xr-70" value="" style="html=1;verticalLabelPosition=bottom;align=center;labelBackgroundColor=#ffffff;verticalAlign=top;strokeWidth=3;strokeColor=#000000;shadow=0;dashed=0;shape=mxgraph.ios7.icons.down;" vertex="1" parent="ukiQFThfRHP9KPYJV5Xr-67">
          <mxGeometry x="5" y="88.40000000000003" width="50" height="57.19999999999999" as="geometry" />
        </mxCell>
        <mxCell id="ukiQFThfRHP9KPYJV5Xr-71" value="CSDS" style="text;html=1;align=center;verticalAlign=middle;whiteSpace=wrap;rounded=0;fontStyle=1;fontFamily=Nova Round;" vertex="1" parent="ukiQFThfRHP9KPYJV5Xr-67">
          <mxGeometry y="145.60000000000002" width="60" height="31.20000000000001" as="geometry" />
        </mxCell>
        <mxCell id="ukiQFThfRHP9KPYJV5Xr-72" value="" style="html=1;verticalLabelPosition=bottom;align=center;labelBackgroundColor=#ffffff;verticalAlign=top;strokeWidth=3;strokeColor=#000000;shadow=0;dashed=0;shape=mxgraph.ios7.icons.down;" vertex="1" parent="ukiQFThfRHP9KPYJV5Xr-67">
          <mxGeometry x="65" width="50" height="57.19999999999999" as="geometry" />
        </mxCell>
        <mxCell id="ukiQFThfRHP9KPYJV5Xr-73" value="MHSDS" style="text;html=1;align=center;verticalAlign=middle;whiteSpace=wrap;rounded=0;fontStyle=1;fontFamily=Nova Round;" vertex="1" parent="ukiQFThfRHP9KPYJV5Xr-67">
          <mxGeometry x="60" y="57.19999999999999" width="60" height="31.20000000000001" as="geometry" />
        </mxCell>
        <mxCell id="ukiQFThfRHP9KPYJV5Xr-74" value="" style="html=1;verticalLabelPosition=bottom;align=center;labelBackgroundColor=#ffffff;verticalAlign=top;strokeWidth=3;strokeColor=#000000;shadow=0;dashed=0;shape=mxgraph.ios7.icons.down;" vertex="1" parent="ukiQFThfRHP9KPYJV5Xr-67">
          <mxGeometry x="65" y="88.40000000000003" width="50" height="57.19999999999999" as="geometry" />
        </mxCell>
        <mxCell id="ukiQFThfRHP9KPYJV5Xr-75" value="CDS" style="text;html=1;align=center;verticalAlign=middle;whiteSpace=wrap;rounded=0;fontStyle=1;fontFamily=Nova Round;" vertex="1" parent="ukiQFThfRHP9KPYJV5Xr-67">
          <mxGeometry x="60" y="145.60000000000002" width="60" height="31.20000000000001" as="geometry" />
        </mxCell>
        <mxCell id="ukiQFThfRHP9KPYJV5Xr-76" value="Submissions" style="text;html=1;align=center;verticalAlign=middle;whiteSpace=wrap;rounded=0;fontFamily=Nova Round;fontStyle=1;fontSize=22;" vertex="1" parent="ukiQFThfRHP9KPYJV5Xr-65">
          <mxGeometry x="5" width="150" height="66.56" as="geometry" />
        </mxCell>
        <mxCell id="ukiQFThfRHP9KPYJV5Xr-77" value="Azure Fabric" style="text;html=1;align=center;verticalAlign=middle;whiteSpace=wrap;rounded=0;fontFamily=Nova Round;fontStyle=1;fontSize=22;textOpacity=50;opacity=50;" vertex="1" parent="1">
          <mxGeometry x="1090" y="-228" width="230" height="30" as="geometry" />
        </mxCell>
        <mxCell id="ukiQFThfRHP9KPYJV5Xr-78" value="" style="endArrow=none;html=1;rounded=0;strokeWidth=3;textOpacity=50;opacity=50;" edge="1" parent="1">
          <mxGeometry width="50" height="50" relative="1" as="geometry">
            <mxPoint x="560" y="-190" as="sourcePoint" />
            <mxPoint x="2100" y="-190" as="targetPoint" />
          </mxGeometry>
        </mxCell>
        <mxCell id="ukiQFThfRHP9KPYJV5Xr-79" value="" style="group" vertex="1" connectable="0" parent="1">
          <mxGeometry x="1880" y="-159" width="180" height="180" as="geometry" />
        </mxCell>
        <mxCell id="ukiQFThfRHP9KPYJV5Xr-80" value="" style="rounded=1;whiteSpace=wrap;html=1;arcSize=10;strokeWidth=3;container=0;" vertex="1" parent="ukiQFThfRHP9KPYJV5Xr-79">
          <mxGeometry width="180" height="180" as="geometry" />
        </mxCell>
        <mxCell id="ukiQFThfRHP9KPYJV5Xr-81" value="TOBI Reports &amp;amp; Dashboards" style="text;html=1;align=center;verticalAlign=middle;whiteSpace=wrap;rounded=0;fontStyle=1;fontFamily=Nova Round;container=0;" vertex="1" parent="ukiQFThfRHP9KPYJV5Xr-79">
          <mxGeometry x="22.75" y="129" width="134.5" height="31.2" as="geometry" />
        </mxCell>
        <mxCell id="ukiQFThfRHP9KPYJV5Xr-82" value="&lt;font&gt;Reports &amp;amp; Dashboards&lt;/font&gt;" style="text;html=1;align=center;verticalAlign=middle;whiteSpace=wrap;rounded=0;fontFamily=Nova Round;fontSize=16;fontStyle=1;container=0;" vertex="1" parent="ukiQFThfRHP9KPYJV5Xr-79">
          <mxGeometry x="11.75" y="19" width="156.5" height="30" as="geometry" />
        </mxCell>
        <mxCell id="ukiQFThfRHP9KPYJV5Xr-83" value="" style="group" vertex="1" connectable="0" parent="ukiQFThfRHP9KPYJV5Xr-79">
          <mxGeometry x="60" y="59" width="60" height="60" as="geometry" />
        </mxCell>
        <mxCell id="ukiQFThfRHP9KPYJV5Xr-84" value="" style="ellipse;whiteSpace=wrap;html=1;aspect=fixed;strokeWidth=3;container=0;" vertex="1" parent="ukiQFThfRHP9KPYJV5Xr-83">
          <mxGeometry width="60" height="60" as="geometry" />
        </mxCell>
        <mxCell id="ukiQFThfRHP9KPYJV5Xr-85" value="" style="endArrow=none;html=1;rounded=1;curved=0;strokeWidth=4;" edge="1" parent="ukiQFThfRHP9KPYJV5Xr-83">
          <mxGeometry width="50" height="50" relative="1" as="geometry">
            <mxPoint x="17.655772395955637" y="39.829532094991805" as="sourcePoint" />
            <mxPoint x="42.344227604044136" y="39.829532094991805" as="targetPoint" />
            <Array as="points">
              <mxPoint x="10.601928050787592" y="39.829532094991805" />
              <mxPoint x="10.601928050787592" y="15.14107688690342" />
              <mxPoint x="49.39807194921218" y="15.14107688690342" />
              <mxPoint x="49.39807194921218" y="39.829532094991805" />
            </Array>
          </mxGeometry>
        </mxCell>
        <mxCell id="ukiQFThfRHP9KPYJV5Xr-86" value="" style="rounded=1;whiteSpace=wrap;html=1;fillColor=#000000;container=0;" vertex="1" parent="ukiQFThfRHP9KPYJV5Xr-83">
          <mxGeometry x="19.771925699506255" y="32.33482247825066" width="3.5269221725840603" height="13.225958147190218" as="geometry" />
        </mxCell>
        <mxCell id="ukiQFThfRHP9KPYJV5Xr-87" value="" style="rounded=1;whiteSpace=wrap;html=1;fillColor=#000000;container=0;" vertex="1" parent="ukiQFThfRHP9KPYJV5Xr-83">
          <mxGeometry x="25.415001175640555" y="25.7218434046556" width="3.5269221725840603" height="19.927110275099928" as="geometry" />
        </mxCell>
        <mxCell id="ukiQFThfRHP9KPYJV5Xr-88" value="" style="rounded=1;whiteSpace=wrap;html=1;fillColor=#000000;container=0;" vertex="1" parent="ukiQFThfRHP9KPYJV5Xr-83">
          <mxGeometry x="31.05807665177508" y="29.248765577239624" width="3.5269221725840603" height="16.312015048201268" as="geometry" />
        </mxCell>
        <mxCell id="ukiQFThfRHP9KPYJV5Xr-89" value="" style="rounded=1;whiteSpace=wrap;html=1;fillColor=#000000;container=0;" vertex="1" parent="ukiQFThfRHP9KPYJV5Xr-83">
          <mxGeometry x="36.70115212790961" y="22.19492123207158" width="3.5269221725840603" height="23.365859393369387" as="geometry" />
        </mxCell>
        <mxCell id="ukiQFThfRHP9KPYJV5Xr-90" value="" style="group" vertex="1" connectable="0" parent="1">
          <mxGeometry y="-240" width="310" height="361" as="geometry" />
        </mxCell>
        <mxCell id="ukiQFThfRHP9KPYJV5Xr-91" value="" style="rounded=1;whiteSpace=wrap;html=1;strokeWidth=3;movable=1;resizable=1;rotatable=1;deletable=1;editable=1;locked=0;connectable=1;" vertex="1" parent="ukiQFThfRHP9KPYJV5Xr-90">
          <mxGeometry y="1" width="310" height="360" as="geometry" />
        </mxCell>
        <mxCell id="ukiQFThfRHP9KPYJV5Xr-92" value="Live Systems" style="text;html=1;align=center;verticalAlign=middle;whiteSpace=wrap;rounded=0;fontFamily=Nova Round;fontSize=16;fontStyle=1" vertex="1" parent="ukiQFThfRHP9KPYJV5Xr-90">
          <mxGeometry x="100" width="110" height="50" as="geometry" />
        </mxCell>
        <mxCell id="ukiQFThfRHP9KPYJV5Xr-93" value="&lt;font face=&quot;Nova Round&quot;&gt;&lt;b&gt;EMIS&lt;/b&gt;&lt;/font&gt;" style="shape=cylinder3;whiteSpace=wrap;html=1;boundedLbl=1;backgroundOutline=1;size=15;strokeWidth=3;" vertex="1" parent="ukiQFThfRHP9KPYJV5Xr-90">
          <mxGeometry x="48" y="57" width="60" height="80" as="geometry" />
        </mxCell>
        <mxCell id="ukiQFThfRHP9KPYJV5Xr-94" value="&lt;font face=&quot;Nova Round&quot;&gt;&lt;b&gt;RiO&lt;/b&gt;&lt;/font&gt;" style="shape=cylinder3;whiteSpace=wrap;html=1;boundedLbl=1;backgroundOutline=1;size=15;strokeWidth=3;" vertex="1" parent="ukiQFThfRHP9KPYJV5Xr-90">
          <mxGeometry x="192" y="57" width="60" height="80" as="geometry" />
        </mxCell>
        <mxCell id="ukiQFThfRHP9KPYJV5Xr-95" value="&lt;font face=&quot;Nova Round&quot;&gt;&lt;b&gt;PCMIS&lt;/b&gt;&lt;/font&gt;" style="shape=cylinder3;whiteSpace=wrap;html=1;boundedLbl=1;backgroundOutline=1;size=15;strokeWidth=3;" vertex="1" parent="ukiQFThfRHP9KPYJV5Xr-90">
          <mxGeometry x="192" y="143" width="60" height="80" as="geometry" />
        </mxCell>
        <mxCell id="ukiQFThfRHP9KPYJV5Xr-96" value="&lt;font face=&quot;Nova Round&quot;&gt;&lt;b&gt;Adastra&lt;/b&gt;&lt;/font&gt;" style="shape=cylinder3;whiteSpace=wrap;html=1;boundedLbl=1;backgroundOutline=1;size=15;strokeWidth=3;" vertex="1" parent="ukiQFThfRHP9KPYJV5Xr-90">
          <mxGeometry x="119" y="57" width="60" height="80" as="geometry" />
        </mxCell>
        <mxCell id="ukiQFThfRHP9KPYJV5Xr-97" value="&lt;font face=&quot;Nova Round&quot;&gt;&lt;b&gt;CHIS/&lt;/b&gt;&lt;/font&gt;&lt;div&gt;&lt;font face=&quot;Nova Round&quot;&gt;&lt;b&gt;OUH/&lt;/b&gt;&lt;/font&gt;&lt;/div&gt;&lt;div&gt;&lt;font face=&quot;Nova Round&quot;&gt;&lt;b&gt;RBFT&lt;/b&gt;&lt;/font&gt;&lt;/div&gt;" style="shape=cylinder3;whiteSpace=wrap;html=1;boundedLbl=1;backgroundOutline=1;size=15;strokeWidth=3;" vertex="1" parent="ukiQFThfRHP9KPYJV5Xr-90">
          <mxGeometry x="119" y="143" width="60" height="80" as="geometry" />
        </mxCell>
        <mxCell id="ukiQFThfRHP9KPYJV5Xr-98" value="&lt;font face=&quot;Nova Round&quot;&gt;&lt;b&gt;ePMA&lt;/b&gt;&lt;/font&gt;" style="shape=cylinder3;whiteSpace=wrap;html=1;boundedLbl=1;backgroundOutline=1;size=15;strokeWidth=3;" vertex="1" parent="ukiQFThfRHP9KPYJV5Xr-90">
          <mxGeometry x="48" y="143" width="60" height="80" as="geometry" />
        </mxCell>
        <mxCell id="ukiQFThfRHP9KPYJV5Xr-99" value="&lt;font face=&quot;Nova Round&quot;&gt;&lt;b&gt;POC/&lt;/b&gt;&lt;/font&gt;&lt;div&gt;&lt;font face=&quot;Nova Round&quot;&gt;&lt;b&gt;AQURE&lt;/b&gt;&lt;/font&gt;&lt;/div&gt;" style="shape=cylinder3;whiteSpace=wrap;html=1;boundedLbl=1;backgroundOutline=1;size=15;strokeWidth=3;" vertex="1" parent="ukiQFThfRHP9KPYJV5Xr-90">
          <mxGeometry x="119" y="231" width="60" height="80" as="geometry" />
        </mxCell>
        <mxCell id="ukiQFThfRHP9KPYJV5Xr-100" value="" style="endArrow=classic;html=1;rounded=1;strokeWidth=3;curved=0;" edge="1" parent="1">
          <mxGeometry width="50" height="50" relative="1" as="geometry">
            <mxPoint x="320" y="-360" as="sourcePoint" />
            <mxPoint x="590" y="-70" as="targetPoint" />
            <Array as="points">
              <mxPoint x="440" y="-360" />
              <mxPoint x="440" y="-70" />
            </Array>
          </mxGeometry>
        </mxCell>
        <mxCell id="ukiQFThfRHP9KPYJV5Xr-101" value="" style="endArrow=classic;html=1;rounded=1;strokeWidth=3;curved=0;" edge="1" parent="1">
          <mxGeometry width="50" height="50" relative="1" as="geometry">
            <mxPoint x="320" y="670" as="sourcePoint" />
            <mxPoint x="850" y="30" as="targetPoint" />
            <Array as="points">
              <mxPoint x="440" y="670" />
              <mxPoint x="440" y="160" />
              <mxPoint x="850" y="160" />
            </Array>
          </mxGeometry>
        </mxCell>
        <mxCell id="ukiQFThfRHP9KPYJV5Xr-102" value="" style="endArrow=none;html=1;rounded=1;strokeWidth=3;curved=0;" edge="1" parent="1">
          <mxGeometry width="50" height="50" relative="1" as="geometry">
            <mxPoint x="320" y="340" as="sourcePoint" />
            <mxPoint x="440" y="190" as="targetPoint" />
            <Array as="points">
              <mxPoint x="440" y="340" />
            </Array>
          </mxGeometry>
        </mxCell>
        <mxCell id="ukiQFThfRHP9KPYJV5Xr-103" value="" style="endArrow=classic;html=1;rounded=0;strokeWidth=3;" edge="1" parent="1">
          <mxGeometry width="50" height="50" relative="1" as="geometry">
            <mxPoint x="670" y="-70" as="sourcePoint" />
            <mxPoint x="760" y="-69.58999999999997" as="targetPoint" />
          </mxGeometry>
        </mxCell>
        <mxCell id="ukiQFThfRHP9KPYJV5Xr-104" value="" style="endArrow=classic;html=1;rounded=0;strokeWidth=3;" edge="1" parent="1">
          <mxGeometry width="50" height="50" relative="1" as="geometry">
            <mxPoint x="960" y="-70.59" as="sourcePoint" />
            <mxPoint x="1050" y="-70.17999999999998" as="targetPoint" />
          </mxGeometry>
        </mxCell>
        <mxCell id="ukiQFThfRHP9KPYJV5Xr-105" value="" style="endArrow=classic;html=1;rounded=0;strokeWidth=3;" edge="1" parent="1">
          <mxGeometry width="50" height="50" relative="1" as="geometry">
            <mxPoint x="1246" y="-70.59" as="sourcePoint" />
            <mxPoint x="1336" y="-70.17999999999998" as="targetPoint" />
          </mxGeometry>
        </mxCell>
        <mxCell id="ukiQFThfRHP9KPYJV5Xr-106" value="" style="endArrow=classic;html=1;rounded=0;strokeWidth=3;" edge="1" parent="1">
          <mxGeometry width="50" height="50" relative="1" as="geometry">
            <mxPoint x="1530" y="-70" as="sourcePoint" />
            <mxPoint x="1600" y="-69" as="targetPoint" />
          </mxGeometry>
        </mxCell>
        <mxCell id="ukiQFThfRHP9KPYJV5Xr-107" value="" style="endArrow=classic;html=1;rounded=0;strokeWidth=3;" edge="1" parent="1">
          <mxGeometry width="50" height="50" relative="1" as="geometry">
            <mxPoint x="1800" y="-69.59" as="sourcePoint" />
            <mxPoint x="1870" y="-70" as="targetPoint" />
          </mxGeometry>
        </mxCell>
        <mxCell id="ukiQFThfRHP9KPYJV5Xr-108" value="" style="endArrow=classic;html=1;rounded=1;strokeWidth=3;curved=0;" edge="1" parent="1">
          <mxGeometry width="50" height="50" relative="1" as="geometry">
            <mxPoint x="1150" y="30" as="sourcePoint" />
            <mxPoint x="1320" y="200" as="targetPoint" />
            <Array as="points">
              <mxPoint x="1150" y="200" />
            </Array>
          </mxGeometry>
        </mxCell>
        <mxCell id="ukiQFThfRHP9KPYJV5Xr-109" value="" style="group" vertex="1" connectable="0" parent="1">
          <mxGeometry x="864" y="419" width="260.5" height="261" as="geometry" />
        </mxCell>
        <mxCell id="ukiQFThfRHP9KPYJV5Xr-110" value="" style="rounded=1;whiteSpace=wrap;html=1;strokeWidth=3;container=0;" vertex="1" parent="ukiQFThfRHP9KPYJV5Xr-109">
          <mxGeometry width="260.5" height="261" as="geometry" />
        </mxCell>
        <mxCell id="ukiQFThfRHP9KPYJV5Xr-111" value="MESH Service" style="text;html=1;align=center;verticalAlign=middle;whiteSpace=wrap;rounded=0;fontFamily=Nova Round;fontStyle=1;fontSize=22;container=0;" vertex="1" parent="ukiQFThfRHP9KPYJV5Xr-109">
          <mxGeometry y="20.879999999999995" width="246.5" height="39.12" as="geometry" />
        </mxCell>
        <mxCell id="ukiQFThfRHP9KPYJV5Xr-112" value="" style="html=1;verticalLabelPosition=bottom;align=center;labelBackgroundColor=#ffffff;verticalAlign=top;strokeWidth=3;strokeColor=#000000;shadow=0;dashed=0;shape=mxgraph.ios7.icons.down;container=0;" vertex="1" parent="ukiQFThfRHP9KPYJV5Xr-109">
          <mxGeometry x="156" y="107.40000000000009" width="50" height="57.19999999999999" as="geometry" />
        </mxCell>
        <mxCell id="ukiQFThfRHP9KPYJV5Xr-113" value="ePMA" style="text;html=1;align=center;verticalAlign=middle;whiteSpace=wrap;rounded=0;fontStyle=1;fontFamily=Nova Round;container=0;" vertex="1" parent="ukiQFThfRHP9KPYJV5Xr-109">
          <mxGeometry x="151" y="177.5999999999999" width="60" height="31.20000000000001" as="geometry" />
        </mxCell>
        <mxCell id="ukiQFThfRHP9KPYJV5Xr-114" value="" style="sketch=0;outlineConnect=0;fontColor=#232F3E;gradientColor=none;fillColor=#000000;strokeColor=none;dashed=0;verticalLabelPosition=bottom;verticalAlign=top;align=center;html=1;fontSize=12;fontStyle=0;aspect=fixed;pointerEvents=1;shape=mxgraph.aws4.message;container=0;" vertex="1" parent="ukiQFThfRHP9KPYJV5Xr-109">
          <mxGeometry x="45.930000000000064" y="104.40000000000009" width="60.13" height="70" as="geometry" />
        </mxCell>
        <mxCell id="ukiQFThfRHP9KPYJV5Xr-115" value="Opt Outs" style="text;html=1;align=center;verticalAlign=middle;whiteSpace=wrap;rounded=0;fontStyle=1;fontFamily=Nova Round;container=0;" vertex="1" parent="ukiQFThfRHP9KPYJV5Xr-109">
          <mxGeometry x="46.06000000000006" y="177.48000000000013" width="60" height="31.32000000000001" as="geometry" />
        </mxCell>
        <mxCell id="ukiQFThfRHP9KPYJV5Xr-116" value="" style="endArrow=classic;html=1;rounded=1;strokeWidth=3;curved=0;" edge="1" parent="1">
          <mxGeometry width="50" height="50" relative="1" as="geometry">
            <mxPoint x="1124.5" y="30" as="sourcePoint" />
            <mxPoint x="1040" y="400" as="targetPoint" />
            <Array as="points">
              <mxPoint x="1125" y="360" />
              <mxPoint x="1040" y="360" />
            </Array>
          </mxGeometry>
        </mxCell>
        <mxCell id="ukiQFThfRHP9KPYJV5Xr-117" value="" style="endArrow=classic;html=1;rounded=1;strokeWidth=3;curved=0;" edge="1" parent="1">
          <mxGeometry width="50" height="50" relative="1" as="geometry">
            <mxPoint x="960" y="400" as="sourcePoint" />
            <mxPoint x="890" y="30" as="targetPoint" />
            <Array as="points">
              <mxPoint x="960" y="360" />
              <mxPoint x="890" y="360" />
            </Array>
          </mxGeometry>
        </mxCell>
        <mxCell id="ukiQFThfRHP9KPYJV5Xr-118" value="" style="endArrow=classic;html=1;rounded=1;strokeWidth=3;curved=0;" edge="1" parent="1">
          <mxGeometry width="50" height="50" relative="1" as="geometry">
            <mxPoint x="1400" y="280" as="sourcePoint" />
            <mxPoint x="1140" y="560" as="targetPoint" />
            <Array as="points">
              <mxPoint x="1400" y="350" />
              <mxPoint x="1190" y="350" />
              <mxPoint x="1190" y="560" />
            </Array>
          </mxGeometry>
        </mxCell>
        <mxCell id="ukiQFThfRHP9KPYJV5Xr-119" value="" style="endArrow=classic;html=1;rounded=0;strokeWidth=3;" edge="1" parent="1">
          <mxGeometry width="50" height="50" relative="1" as="geometry">
            <mxPoint x="1429.41" y="280" as="sourcePoint" />
            <mxPoint x="1429.41" y="410" as="targetPoint" />
          </mxGeometry>
        </mxCell>
        <mxCell id="ukiQFThfRHP9KPYJV5Xr-120" value="" style="group" vertex="1" connectable="0" parent="1">
          <mxGeometry x="1720" y="-820" width="775" height="521" as="geometry" />
        </mxCell>
        <mxCell id="ukiQFThfRHP9KPYJV5Xr-121" value="" style="rounded=1;whiteSpace=wrap;html=1;opacity=50;strokeWidth=3;arcSize=8;" vertex="1" parent="ukiQFThfRHP9KPYJV5Xr-120">
          <mxGeometry x="469" width="306" height="240" as="geometry" />
        </mxCell>
        <mxCell id="ukiQFThfRHP9KPYJV5Xr-122" value="" style="rounded=1;whiteSpace=wrap;html=1;opacity=50;strokeWidth=3;arcSize=8;" vertex="1" parent="ukiQFThfRHP9KPYJV5Xr-120">
          <mxGeometry x="469" y="251" width="306" height="240" as="geometry" />
        </mxCell>
        <mxCell id="ukiQFThfRHP9KPYJV5Xr-123" value="" style="group" vertex="1" connectable="0" parent="ukiQFThfRHP9KPYJV5Xr-120">
          <mxGeometry x="509" y="18" width="265" height="222" as="geometry" />
        </mxCell>
        <mxCell id="ukiQFThfRHP9KPYJV5Xr-124" value="" style="rounded=1;whiteSpace=wrap;html=1;arcSize=10;strokeWidth=3;" vertex="1" parent="ukiQFThfRHP9KPYJV5Xr-123">
          <mxGeometry width="213" height="200" as="geometry" />
        </mxCell>
        <mxCell id="ukiQFThfRHP9KPYJV5Xr-125" value="Akriviahealth.nhs.uk" style="text;html=1;align=center;verticalAlign=middle;whiteSpace=wrap;rounded=0;fontFamily=Nova Round;fontSize=21;fontStyle=1" vertex="1" parent="ukiQFThfRHP9KPYJV5Xr-123">
          <mxGeometry x="10" y="10" width="193" height="30" as="geometry" />
        </mxCell>
        <mxCell id="ukiQFThfRHP9KPYJV5Xr-126" value="" style="group" vertex="1" connectable="0" parent="ukiQFThfRHP9KPYJV5Xr-123">
          <mxGeometry x="11" y="72" width="254" height="150" as="geometry" />
        </mxCell>
        <mxCell id="ukiQFThfRHP9KPYJV5Xr-127" value="" style="endArrow=classic;html=1;rounded=0;strokeWidth=3;" edge="1" parent="ukiQFThfRHP9KPYJV5Xr-126">
          <mxGeometry width="50" height="50" relative="1" as="geometry">
            <mxPoint x="90" y="31" as="sourcePoint" />
            <mxPoint x="120" y="31" as="targetPoint" />
          </mxGeometry>
        </mxCell>
        <mxCell id="ukiQFThfRHP9KPYJV5Xr-128" value="" style="group" vertex="1" connectable="0" parent="ukiQFThfRHP9KPYJV5Xr-126">
          <mxGeometry x="120" width="134" height="150" as="geometry" />
        </mxCell>
        <mxCell id="ukiQFThfRHP9KPYJV5Xr-129" value="" style="group" vertex="1" connectable="0" parent="ukiQFThfRHP9KPYJV5Xr-128">
          <mxGeometry x="-147" y="-90" width="285" height="240" as="geometry" />
        </mxCell>
        <mxCell id="ukiQFThfRHP9KPYJV5Xr-130" value="AWS" style="text;html=1;align=center;verticalAlign=middle;whiteSpace=wrap;rounded=0;fontFamily=Nova Round;fontStyle=1;fontSize=22;textOpacity=50;textDirection=vertical-lr;" vertex="1" parent="ukiQFThfRHP9KPYJV5Xr-129">
          <mxGeometry x="245" y="25" width="30" height="190" as="geometry" />
        </mxCell>
        <mxCell id="ukiQFThfRHP9KPYJV5Xr-131" value="" style="endArrow=none;html=1;rounded=0;strokeWidth=3;opacity=50;" edge="1" parent="ukiQFThfRHP9KPYJV5Xr-129">
          <mxGeometry width="50" height="50" relative="1" as="geometry">
            <mxPoint x="240" y="11" as="sourcePoint" />
            <mxPoint x="240" y="230" as="targetPoint" />
          </mxGeometry>
        </mxCell>
        <mxCell id="ukiQFThfRHP9KPYJV5Xr-132" value="" style="verticalLabelPosition=bottom;html=1;verticalAlign=top;align=center;strokeColor=none;fillColor=#000000;shape=mxgraph.azure.virtual_machine_feature;pointerEvents=1;" vertex="1" parent="ukiQFThfRHP9KPYJV5Xr-128">
          <mxGeometry x="5" width="60" height="60" as="geometry" />
        </mxCell>
        <mxCell id="ukiQFThfRHP9KPYJV5Xr-133" value="&lt;font face=&quot;Nova Round&quot;&gt;&lt;b&gt;Processed Data VM&lt;/b&gt;&lt;/font&gt;" style="text;html=1;align=center;verticalAlign=middle;whiteSpace=wrap;rounded=0;" vertex="1" parent="ukiQFThfRHP9KPYJV5Xr-128">
          <mxGeometry y="65" width="70" height="40" as="geometry" />
        </mxCell>
        <mxCell id="ukiQFThfRHP9KPYJV5Xr-134" value="" style="group" vertex="1" connectable="0" parent="ukiQFThfRHP9KPYJV5Xr-126">
          <mxGeometry y="10" width="83.56999999999994" height="95" as="geometry" />
        </mxCell>
        <mxCell id="ukiQFThfRHP9KPYJV5Xr-135" value="" style="sketch=0;outlineConnect=0;fontColor=#232F3E;gradientColor=none;fillColor=#000000;strokeColor=none;dashed=0;verticalLabelPosition=bottom;verticalAlign=top;align=center;html=1;fontSize=12;fontStyle=0;aspect=fixed;pointerEvents=1;shape=mxgraph.aws4.iot_analytics_pipeline;" vertex="1" parent="ukiQFThfRHP9KPYJV5Xr-134">
          <mxGeometry width="83.57" height="45" as="geometry" />
        </mxCell>
        <mxCell id="ukiQFThfRHP9KPYJV5Xr-136" value="&lt;font face=&quot;Nova Round&quot;&gt;&lt;b&gt;Akriva Data Pipeline&lt;/b&gt;&lt;/font&gt;" style="text;html=1;align=center;verticalAlign=middle;whiteSpace=wrap;rounded=0;" vertex="1" parent="ukiQFThfRHP9KPYJV5Xr-134">
          <mxGeometry x="6.789999999999964" y="55" width="70" height="40" as="geometry" />
        </mxCell>
        <mxCell id="ukiQFThfRHP9KPYJV5Xr-137" value="" style="group" vertex="1" connectable="0" parent="ukiQFThfRHP9KPYJV5Xr-120">
          <mxGeometry x="504" y="271" width="213" height="200" as="geometry" />
        </mxCell>
        <mxCell id="ukiQFThfRHP9KPYJV5Xr-138" value="" style="rounded=1;whiteSpace=wrap;html=1;arcSize=10;strokeWidth=3;container=0;" vertex="1" parent="ukiQFThfRHP9KPYJV5Xr-137">
          <mxGeometry width="213" height="200" as="geometry" />
        </mxCell>
        <mxCell id="ukiQFThfRHP9KPYJV5Xr-139" value="mhtac.slam.nhs.uk" style="text;html=1;align=center;verticalAlign=middle;whiteSpace=wrap;rounded=0;fontFamily=Nova Round;fontSize=21;fontStyle=1;container=0;" vertex="1" parent="ukiQFThfRHP9KPYJV5Xr-137">
          <mxGeometry x="10" y="10" width="193" height="30" as="geometry" />
        </mxCell>
        <mxCell id="ukiQFThfRHP9KPYJV5Xr-140" value="" style="endArrow=classic;html=1;rounded=0;strokeWidth=3;" edge="1" parent="ukiQFThfRHP9KPYJV5Xr-137">
          <mxGeometry width="50" height="50" relative="1" as="geometry">
            <mxPoint x="94" y="103" as="sourcePoint" />
            <mxPoint x="131" y="103" as="targetPoint" />
          </mxGeometry>
        </mxCell>
        <mxCell id="ukiQFThfRHP9KPYJV5Xr-141" value="" style="verticalLabelPosition=bottom;html=1;verticalAlign=top;align=center;strokeColor=none;fillColor=#000000;shape=mxgraph.azure.virtual_machine_feature;pointerEvents=1;container=0;" vertex="1" parent="ukiQFThfRHP9KPYJV5Xr-137">
          <mxGeometry x="136" y="72" width="60" height="60" as="geometry" />
        </mxCell>
        <mxCell id="ukiQFThfRHP9KPYJV5Xr-142" value="&lt;font face=&quot;Nova Round&quot;&gt;&lt;b&gt;Processed Data VM&lt;/b&gt;&lt;/font&gt;" style="text;html=1;align=center;verticalAlign=middle;whiteSpace=wrap;rounded=0;container=0;" vertex="1" parent="ukiQFThfRHP9KPYJV5Xr-137">
          <mxGeometry x="131" y="137" width="70" height="40" as="geometry" />
        </mxCell>
        <mxCell id="ukiQFThfRHP9KPYJV5Xr-143" value="&lt;font face=&quot;Nova Round&quot;&gt;&lt;b&gt;Gen2 BLOB Storage&lt;/b&gt;&lt;/font&gt;" style="text;html=1;align=center;verticalAlign=middle;whiteSpace=wrap;rounded=0;container=0;" vertex="1" parent="ukiQFThfRHP9KPYJV5Xr-137">
          <mxGeometry x="17.789999999999964" y="137" width="70" height="40" as="geometry" />
        </mxCell>
        <mxCell id="ukiQFThfRHP9KPYJV5Xr-144" value="" style="group" vertex="1" connectable="0" parent="ukiQFThfRHP9KPYJV5Xr-137">
          <mxGeometry x="23" y="75" width="60" height="55" as="geometry" />
        </mxCell>
        <mxCell id="ukiQFThfRHP9KPYJV5Xr-145" value="" style="rounded=0;whiteSpace=wrap;html=1;strokeColor=none;fillColor=#CCCCCC;container=0;" vertex="1" parent="ukiQFThfRHP9KPYJV5Xr-144">
          <mxGeometry x="37.2289156626506" width="5.060240963855422" height="18.333333333333336" as="geometry" />
        </mxCell>
        <mxCell id="ukiQFThfRHP9KPYJV5Xr-146" value="" style="rounded=0;whiteSpace=wrap;html=1;strokeColor=none;fillColor=#CCCCCC;container=0;" vertex="1" parent="ukiQFThfRHP9KPYJV5Xr-144">
          <mxGeometry x="1.0843373493975903" width="14.457831325301205" height="18.333333333333336" as="geometry" />
        </mxCell>
        <mxCell id="ukiQFThfRHP9KPYJV5Xr-147" value="" style="rounded=0;whiteSpace=wrap;html=1;arcSize=20;fillColor=#4D4D4D;strokeColor=none;container=0;" vertex="1" parent="ukiQFThfRHP9KPYJV5Xr-144">
          <mxGeometry x="15.542168674698795" width="21.686746987951807" height="18.333333333333336" as="geometry" />
        </mxCell>
        <mxCell id="ukiQFThfRHP9KPYJV5Xr-148" value="" style="rounded=0;whiteSpace=wrap;html=1;arcSize=20;fillColor=#4D4D4D;container=0;" vertex="1" parent="ukiQFThfRHP9KPYJV5Xr-144">
          <mxGeometry x="28.554216867469876" y="18.333333333333336" width="30.361445783132528" height="18.333333333333336" as="geometry" />
        </mxCell>
        <mxCell id="ukiQFThfRHP9KPYJV5Xr-149" value="" style="rounded=1;whiteSpace=wrap;html=1;arcSize=20;fillColor=#CCCCCC;container=0;" vertex="1" parent="ukiQFThfRHP9KPYJV5Xr-144">
          <mxGeometry x="1.0843373493975903" y="36.66666666666667" width="42.65060240963855" height="18.333333333333336" as="geometry" />
        </mxCell>
        <mxCell id="ukiQFThfRHP9KPYJV5Xr-150" value="" style="endArrow=none;html=1;rounded=1;curved=0;strokeWidth=3;" edge="1" parent="ukiQFThfRHP9KPYJV5Xr-144">
          <mxGeometry width="50" height="50" relative="1" as="geometry">
            <mxPoint x="58.91566265060241" as="sourcePoint" />
            <mxPoint x="1.0843373493975903" as="targetPoint" />
            <Array as="points">
              <mxPoint x="58.91566265060241" y="55" />
              <mxPoint x="1.0843373493975903" y="55" />
            </Array>
          </mxGeometry>
        </mxCell>
        <mxCell id="ukiQFThfRHP9KPYJV5Xr-151" value="" style="endArrow=none;html=1;rounded=0;strokeWidth=3;" edge="1" parent="ukiQFThfRHP9KPYJV5Xr-144">
          <mxGeometry width="50" height="50" relative="1" as="geometry">
            <mxPoint x="1.0843373493975903" y="36.66666666666667" as="sourcePoint" />
            <mxPoint x="58.91566265060241" y="36.66666666666667" as="targetPoint" />
          </mxGeometry>
        </mxCell>
        <mxCell id="ukiQFThfRHP9KPYJV5Xr-152" value="" style="endArrow=none;html=1;rounded=0;strokeWidth=3;" edge="1" parent="ukiQFThfRHP9KPYJV5Xr-144">
          <mxGeometry width="50" height="50" relative="1" as="geometry">
            <mxPoint x="1.0843373493975903" y="18.333333333333336" as="sourcePoint" />
            <mxPoint x="58.91566265060241" y="18.333333333333336" as="targetPoint" />
          </mxGeometry>
        </mxCell>
        <mxCell id="ukiQFThfRHP9KPYJV5Xr-153" value="" style="endArrow=none;html=1;rounded=0;strokeWidth=3;" edge="1" parent="ukiQFThfRHP9KPYJV5Xr-144">
          <mxGeometry width="50" height="50" relative="1" as="geometry">
            <mxPoint x="15.542168674698795" y="18.333333333333336" as="sourcePoint" />
            <mxPoint x="15.542168674698795" as="targetPoint" />
          </mxGeometry>
        </mxCell>
        <mxCell id="ukiQFThfRHP9KPYJV5Xr-154" value="" style="endArrow=none;html=1;rounded=0;strokeWidth=3;" edge="1" parent="ukiQFThfRHP9KPYJV5Xr-144">
          <mxGeometry width="50" height="50" relative="1" as="geometry">
            <mxPoint x="37.2289156626506" y="18.333333333333336" as="sourcePoint" />
            <mxPoint x="37.2289156626506" as="targetPoint" />
          </mxGeometry>
        </mxCell>
        <mxCell id="ukiQFThfRHP9KPYJV5Xr-155" value="" style="endArrow=none;html=1;rounded=0;strokeWidth=3;" edge="1" parent="ukiQFThfRHP9KPYJV5Xr-144">
          <mxGeometry width="50" height="50" relative="1" as="geometry">
            <mxPoint x="42.28915662650602" y="18.333333333333336" as="sourcePoint" />
            <mxPoint x="42.28915662650602" as="targetPoint" />
          </mxGeometry>
        </mxCell>
        <mxCell id="ukiQFThfRHP9KPYJV5Xr-156" value="" style="endArrow=none;html=1;rounded=0;strokeWidth=3;" edge="1" parent="ukiQFThfRHP9KPYJV5Xr-144">
          <mxGeometry width="50" height="50" relative="1" as="geometry">
            <mxPoint x="29.27710843373494" y="36.66666666666667" as="sourcePoint" />
            <mxPoint x="29.27710843373494" y="18.333333333333336" as="targetPoint" />
          </mxGeometry>
        </mxCell>
        <mxCell id="ukiQFThfRHP9KPYJV5Xr-157" value="" style="endArrow=none;html=1;rounded=0;strokeWidth=3;" edge="1" parent="ukiQFThfRHP9KPYJV5Xr-144">
          <mxGeometry width="50" height="50" relative="1" as="geometry">
            <mxPoint x="43.01204819277109" y="54.38888888888889" as="sourcePoint" />
            <mxPoint x="43.01204819277109" y="36.05555555555556" as="targetPoint" />
          </mxGeometry>
        </mxCell>
        <mxCell id="ukiQFThfRHP9KPYJV5Xr-158" value="" style="endArrow=none;html=1;rounded=0;strokeWidth=2;" edge="1" parent="ukiQFThfRHP9KPYJV5Xr-144">
          <mxGeometry width="50" height="50" relative="1" as="geometry">
            <mxPoint y="0.3055555555555555" as="sourcePoint" />
            <mxPoint x="60" y="0.3055555555555555" as="targetPoint" />
          </mxGeometry>
        </mxCell>
        <mxCell id="ukiQFThfRHP9KPYJV5Xr-159" value="Azure" style="text;html=1;align=center;verticalAlign=middle;whiteSpace=wrap;rounded=0;fontFamily=Nova Round;fontStyle=1;fontSize=22;textOpacity=50;textDirection=vertical-lr;" vertex="1" parent="ukiQFThfRHP9KPYJV5Xr-120">
          <mxGeometry x="734" y="276" width="30" height="190" as="geometry" />
        </mxCell>
        <mxCell id="ukiQFThfRHP9KPYJV5Xr-160" value="" style="endArrow=none;html=1;rounded=0;strokeWidth=3;opacity=50;" edge="1" parent="ukiQFThfRHP9KPYJV5Xr-120">
          <mxGeometry width="50" height="50" relative="1" as="geometry">
            <mxPoint x="731" y="262" as="sourcePoint" />
            <mxPoint x="731" y="481" as="targetPoint" />
          </mxGeometry>
        </mxCell>
        <mxCell id="ukiQFThfRHP9KPYJV5Xr-161" value="" style="endArrow=classic;html=1;rounded=0;strokeWidth=3;" edge="1" parent="ukiQFThfRHP9KPYJV5Xr-120">
          <mxGeometry width="50" height="50" relative="1" as="geometry">
            <mxPoint x="371" y="111" as="sourcePoint" />
            <mxPoint x="449" y="111" as="targetPoint" />
          </mxGeometry>
        </mxCell>
        <mxCell id="ukiQFThfRHP9KPYJV5Xr-162" value="" style="endArrow=classic;html=1;rounded=0;strokeWidth=3;" edge="1" parent="ukiQFThfRHP9KPYJV5Xr-120">
          <mxGeometry width="50" height="50" relative="1" as="geometry">
            <mxPoint x="371" y="300.5" as="sourcePoint" />
            <mxPoint x="459" y="301" as="targetPoint" />
          </mxGeometry>
        </mxCell>
        <mxCell id="ukiQFThfRHP9KPYJV5Xr-163" value="" style="rounded=1;whiteSpace=wrap;html=1;arcSize=10;strokeWidth=3;" vertex="1" parent="ukiQFThfRHP9KPYJV5Xr-120">
          <mxGeometry x="188.75" width="173.5" height="521" as="geometry" />
        </mxCell>
        <mxCell id="ukiQFThfRHP9KPYJV5Xr-164" value="" style="group" vertex="1" connectable="0" parent="ukiQFThfRHP9KPYJV5Xr-120">
          <mxGeometry x="241" y="71" width="70" height="120" as="geometry" />
        </mxCell>
        <mxCell id="ukiQFThfRHP9KPYJV5Xr-165" value="" style="sketch=0;outlineConnect=0;fontColor=#232F3E;gradientColor=none;fillColor=#000000;strokeColor=none;dashed=0;verticalLabelPosition=bottom;verticalAlign=top;align=center;html=1;fontSize=12;fontStyle=0;aspect=fixed;pointerEvents=1;shape=mxgraph.aws4.ec2_aws_microservice_extractor_for_net;" vertex="1" parent="ukiQFThfRHP9KPYJV5Xr-164">
          <mxGeometry width="70" height="70" as="geometry" />
        </mxCell>
        <mxCell id="ukiQFThfRHP9KPYJV5Xr-166" value="&lt;font face=&quot;Nova Round&quot;&gt;&lt;b&gt;Akrivia Extract Tool&lt;/b&gt;&lt;/font&gt;" style="text;html=1;align=center;verticalAlign=middle;whiteSpace=wrap;rounded=0;" vertex="1" parent="ukiQFThfRHP9KPYJV5Xr-164">
          <mxGeometry y="70" width="70" height="50" as="geometry" />
        </mxCell>
        <mxCell id="ukiQFThfRHP9KPYJV5Xr-167" value="CP1PL-BICRIS1" style="text;html=1;align=center;verticalAlign=middle;whiteSpace=wrap;rounded=0;fontFamily=Nova Round;fontSize=22;fontStyle=1" vertex="1" parent="ukiQFThfRHP9KPYJV5Xr-120">
          <mxGeometry x="181" y="11" width="190" height="30" as="geometry" />
        </mxCell>
        <mxCell id="ukiQFThfRHP9KPYJV5Xr-168" value="&lt;font face=&quot;Nova Round&quot;&gt;&lt;b&gt;Extract for SLaM&lt;/b&gt;&lt;/font&gt;" style="shape=card;whiteSpace=wrap;html=1;strokeWidth=3;size=20;" vertex="1" parent="ukiQFThfRHP9KPYJV5Xr-120">
          <mxGeometry x="246" y="261" width="60" height="80" as="geometry" />
        </mxCell>
        <mxCell id="ukiQFThfRHP9KPYJV5Xr-169" value="&lt;font face=&quot;Nova Round&quot;&gt;&lt;b&gt;Mirror&lt;/b&gt;&lt;/font&gt;" style="shape=cylinder3;whiteSpace=wrap;html=1;boundedLbl=1;backgroundOutline=1;size=15;strokeWidth=3;" vertex="1" parent="ukiQFThfRHP9KPYJV5Xr-120">
          <mxGeometry x="246" y="401" width="60" height="80" as="geometry" />
        </mxCell>
        <mxCell id="ukiQFThfRHP9KPYJV5Xr-170" value="" style="endArrow=classic;html=1;rounded=1;strokeWidth=3;curved=0;" edge="1" parent="ukiQFThfRHP9KPYJV5Xr-120">
          <mxGeometry width="50" height="50" relative="1" as="geometry">
            <mxPoint x="-800" y="650" as="sourcePoint" />
            <mxPoint x="231" y="300.33000000000004" as="targetPoint" />
            <Array as="points">
              <mxPoint x="-800" y="300" />
            </Array>
          </mxGeometry>
        </mxCell>
        <mxCell id="ukiQFThfRHP9KPYJV5Xr-171" value="" style="endArrow=classic;html=1;rounded=1;strokeWidth=3;curved=0;" edge="1" parent="ukiQFThfRHP9KPYJV5Xr-120">
          <mxGeometry width="50" height="50" relative="1" as="geometry">
            <mxPoint x="121" y="301" as="sourcePoint" />
            <mxPoint x="231" y="111" as="targetPoint" />
            <Array as="points">
              <mxPoint x="121" y="111" />
            </Array>
          </mxGeometry>
        </mxCell>
        <mxCell id="ukiQFThfRHP9KPYJV5Xr-172" value="" style="endArrow=classic;html=1;rounded=1;strokeWidth=3;curved=0;" edge="1" parent="ukiQFThfRHP9KPYJV5Xr-120">
          <mxGeometry width="50" height="50" relative="1" as="geometry">
            <mxPoint x="121" y="301" as="sourcePoint" />
            <mxPoint x="231" y="451" as="targetPoint" />
            <Array as="points">
              <mxPoint x="121" y="451" />
            </Array>
          </mxGeometry>
        </mxCell>
        <mxCell id="ukiQFThfRHP9KPYJV5Xr-173" value="" style="rounded=1;whiteSpace=wrap;html=1;strokeWidth=3;container=0;" vertex="1" parent="1">
          <mxGeometry x="1590" y="-1210" width="213" height="190" as="geometry" />
        </mxCell>
        <mxCell id="ukiQFThfRHP9KPYJV5Xr-174" value="CP1VL-EHRIEDEV1" style="text;html=1;align=center;verticalAlign=middle;whiteSpace=wrap;rounded=0;fontFamily=Nova Round;fontSize=22;fontStyle=1;container=0;" vertex="1" parent="1">
          <mxGeometry x="1601.5" y="-1190" width="190" height="30" as="geometry" />
        </mxCell>
        <mxCell id="ukiQFThfRHP9KPYJV5Xr-175" value="" style="group" vertex="1" connectable="0" parent="1">
          <mxGeometry x="1656" y="-1150" width="78" height="120" as="geometry" />
        </mxCell>
        <mxCell id="ukiQFThfRHP9KPYJV5Xr-176" value="" style="sketch=0;outlineConnect=0;fontColor=#232F3E;gradientColor=none;fillColor=#000000;strokeColor=none;dashed=0;verticalLabelPosition=bottom;verticalAlign=top;align=center;html=1;fontSize=12;fontStyle=0;aspect=fixed;pointerEvents=1;shape=mxgraph.aws4.mq_broker;" vertex="1" parent="ukiQFThfRHP9KPYJV5Xr-175">
          <mxGeometry width="78" height="69" as="geometry" />
        </mxCell>
        <mxCell id="ukiQFThfRHP9KPYJV5Xr-177" value="&lt;font face=&quot;Nova Round&quot;&gt;&lt;b&gt;Integration&lt;/b&gt;&lt;/font&gt;&lt;div&gt;&lt;font face=&quot;Nova Round&quot;&gt;&lt;b&gt;Engine&lt;/b&gt;&lt;/font&gt;&lt;/div&gt;" style="text;html=1;align=center;verticalAlign=middle;whiteSpace=wrap;rounded=0;" vertex="1" parent="ukiQFThfRHP9KPYJV5Xr-175">
          <mxGeometry x="4" y="70" width="70" height="50" as="geometry" />
        </mxCell>
        <mxCell id="ukiQFThfRHP9KPYJV5Xr-178" value="" style="endArrow=classic;startArrow=classic;html=1;rounded=0;strokeWidth=3;" edge="1" parent="1">
          <mxGeometry width="50" height="50" relative="1" as="geometry">
            <mxPoint x="1809.5" y="-1110" as="sourcePoint" />
            <mxPoint x="1859.5" y="-1110" as="targetPoint" />
          </mxGeometry>
        </mxCell>
        <mxCell id="ukiQFThfRHP9KPYJV5Xr-179" value="" style="group" vertex="1" connectable="0" parent="1">
          <mxGeometry x="1866.5" y="-1210" width="213" height="190" as="geometry" />
        </mxCell>
        <mxCell id="ukiQFThfRHP9KPYJV5Xr-180" value="" style="rounded=1;whiteSpace=wrap;html=1;strokeWidth=3;container=0;" vertex="1" parent="ukiQFThfRHP9KPYJV5Xr-179">
          <mxGeometry width="213" height="190" as="geometry" />
        </mxCell>
        <mxCell id="ukiQFThfRHP9KPYJV5Xr-181" value="&lt;span data-teams=&quot;true&quot;&gt;MHOXIEDBDEV01&lt;/span&gt;" style="text;html=1;align=center;verticalAlign=middle;whiteSpace=wrap;rounded=0;fontFamily=Nova Round;fontSize=22;fontStyle=1;container=0;" vertex="1" parent="ukiQFThfRHP9KPYJV5Xr-179">
          <mxGeometry x="11.5" y="20" width="190" height="30" as="geometry" />
        </mxCell>
        <mxCell id="ukiQFThfRHP9KPYJV5Xr-182" value="&lt;font face=&quot;Nova Round&quot;&gt;&lt;b&gt;IE&lt;/b&gt;&lt;/font&gt;&lt;div&gt;&lt;font face=&quot;Nova Round&quot;&gt;&lt;b&gt;DW&lt;/b&gt;&lt;/font&gt;&lt;/div&gt;" style="shape=cylinder3;whiteSpace=wrap;html=1;boundedLbl=1;backgroundOutline=1;size=15;strokeWidth=3;" vertex="1" parent="ukiQFThfRHP9KPYJV5Xr-179">
          <mxGeometry x="76.5" y="80" width="60" height="80" as="geometry" />
        </mxCell>
        <mxCell id="ukiQFThfRHP9KPYJV5Xr-183" value="" style="group" vertex="1" connectable="0" parent="1">
          <mxGeometry x="2190" y="-1450" width="306" height="340" as="geometry" />
        </mxCell>
        <mxCell id="ukiQFThfRHP9KPYJV5Xr-184" value="" style="rounded=1;whiteSpace=wrap;html=1;opacity=50;strokeWidth=3;arcSize=8;" vertex="1" parent="ukiQFThfRHP9KPYJV5Xr-183">
          <mxGeometry width="306" height="340" as="geometry" />
        </mxCell>
        <mxCell id="ukiQFThfRHP9KPYJV5Xr-185" value="Azure" style="text;html=1;align=center;verticalAlign=middle;whiteSpace=wrap;rounded=0;fontFamily=Nova Round;fontStyle=1;fontSize=22;textOpacity=50;textDirection=vertical-lr;" vertex="1" parent="ukiQFThfRHP9KPYJV5Xr-183">
          <mxGeometry x="268" y="75" width="30" height="190" as="geometry" />
        </mxCell>
        <mxCell id="ukiQFThfRHP9KPYJV5Xr-186" value="" style="endArrow=none;html=1;rounded=0;strokeWidth=3;opacity=50;" edge="1" parent="ukiQFThfRHP9KPYJV5Xr-183">
          <mxGeometry width="50" height="50" relative="1" as="geometry">
            <mxPoint x="265" y="9" as="sourcePoint" />
            <mxPoint x="265" y="331" as="targetPoint" />
          </mxGeometry>
        </mxCell>
        <mxCell id="ukiQFThfRHP9KPYJV5Xr-187" value="" style="rounded=1;whiteSpace=wrap;html=1;arcSize=10;strokeWidth=3;container=0;" vertex="1" parent="ukiQFThfRHP9KPYJV5Xr-183">
          <mxGeometry x="35" y="30" width="213" height="280" as="geometry" />
        </mxCell>
        <mxCell id="ukiQFThfRHP9KPYJV5Xr-188" value="" style="endArrow=classic;html=1;rounded=0;strokeWidth=3;" edge="1" parent="ukiQFThfRHP9KPYJV5Xr-183">
          <mxGeometry width="50" height="50" relative="1" as="geometry">
            <mxPoint x="121" y="223" as="sourcePoint" />
            <mxPoint x="158" y="223" as="targetPoint" />
          </mxGeometry>
        </mxCell>
        <mxCell id="ukiQFThfRHP9KPYJV5Xr-189" value="&lt;font face=&quot;Nova Round&quot;&gt;&lt;b&gt;Gen2 BLOB Storage&lt;/b&gt;&lt;/font&gt;" style="text;html=1;align=center;verticalAlign=middle;whiteSpace=wrap;rounded=0;container=0;" vertex="1" parent="ukiQFThfRHP9KPYJV5Xr-183">
          <mxGeometry x="52.789999999999964" y="257" width="70" height="40" as="geometry" />
        </mxCell>
        <mxCell id="ukiQFThfRHP9KPYJV5Xr-190" value="" style="group" vertex="1" connectable="0" parent="ukiQFThfRHP9KPYJV5Xr-183">
          <mxGeometry x="58" y="195" width="60" height="55" as="geometry" />
        </mxCell>
        <mxCell id="ukiQFThfRHP9KPYJV5Xr-191" value="" style="rounded=0;whiteSpace=wrap;html=1;strokeColor=none;fillColor=#CCCCCC;container=0;" vertex="1" parent="ukiQFThfRHP9KPYJV5Xr-190">
          <mxGeometry x="37.2289156626506" width="5.060240963855422" height="18.333333333333336" as="geometry" />
        </mxCell>
        <mxCell id="ukiQFThfRHP9KPYJV5Xr-192" value="" style="rounded=0;whiteSpace=wrap;html=1;strokeColor=none;fillColor=#CCCCCC;container=0;" vertex="1" parent="ukiQFThfRHP9KPYJV5Xr-190">
          <mxGeometry x="1.0843373493975903" width="14.457831325301205" height="18.333333333333336" as="geometry" />
        </mxCell>
        <mxCell id="ukiQFThfRHP9KPYJV5Xr-193" value="" style="rounded=0;whiteSpace=wrap;html=1;arcSize=20;fillColor=#4D4D4D;strokeColor=none;container=0;" vertex="1" parent="ukiQFThfRHP9KPYJV5Xr-190">
          <mxGeometry x="15.542168674698795" width="21.686746987951807" height="18.333333333333336" as="geometry" />
        </mxCell>
        <mxCell id="ukiQFThfRHP9KPYJV5Xr-194" value="" style="rounded=0;whiteSpace=wrap;html=1;arcSize=20;fillColor=#4D4D4D;container=0;" vertex="1" parent="ukiQFThfRHP9KPYJV5Xr-190">
          <mxGeometry x="28.554216867469876" y="18.333333333333336" width="30.361445783132528" height="18.333333333333336" as="geometry" />
        </mxCell>
        <mxCell id="ukiQFThfRHP9KPYJV5Xr-195" value="" style="rounded=1;whiteSpace=wrap;html=1;arcSize=20;fillColor=#CCCCCC;container=0;" vertex="1" parent="ukiQFThfRHP9KPYJV5Xr-190">
          <mxGeometry x="1.0843373493975903" y="36.66666666666667" width="42.65060240963855" height="18.333333333333336" as="geometry" />
        </mxCell>
        <mxCell id="ukiQFThfRHP9KPYJV5Xr-196" value="" style="endArrow=none;html=1;rounded=1;curved=0;strokeWidth=3;" edge="1" parent="ukiQFThfRHP9KPYJV5Xr-190">
          <mxGeometry width="50" height="50" relative="1" as="geometry">
            <mxPoint x="58.91566265060241" as="sourcePoint" />
            <mxPoint x="1.0843373493975903" as="targetPoint" />
            <Array as="points">
              <mxPoint x="58.91566265060241" y="55" />
              <mxPoint x="1.0843373493975903" y="55" />
            </Array>
          </mxGeometry>
        </mxCell>
        <mxCell id="ukiQFThfRHP9KPYJV5Xr-197" value="" style="endArrow=none;html=1;rounded=0;strokeWidth=3;" edge="1" parent="ukiQFThfRHP9KPYJV5Xr-190">
          <mxGeometry width="50" height="50" relative="1" as="geometry">
            <mxPoint x="1.0843373493975903" y="36.66666666666667" as="sourcePoint" />
            <mxPoint x="58.91566265060241" y="36.66666666666667" as="targetPoint" />
          </mxGeometry>
        </mxCell>
        <mxCell id="ukiQFThfRHP9KPYJV5Xr-198" value="" style="endArrow=none;html=1;rounded=0;strokeWidth=3;" edge="1" parent="ukiQFThfRHP9KPYJV5Xr-190">
          <mxGeometry width="50" height="50" relative="1" as="geometry">
            <mxPoint x="1.0843373493975903" y="18.333333333333336" as="sourcePoint" />
            <mxPoint x="58.91566265060241" y="18.333333333333336" as="targetPoint" />
          </mxGeometry>
        </mxCell>
        <mxCell id="ukiQFThfRHP9KPYJV5Xr-199" value="" style="endArrow=none;html=1;rounded=0;strokeWidth=3;" edge="1" parent="ukiQFThfRHP9KPYJV5Xr-190">
          <mxGeometry width="50" height="50" relative="1" as="geometry">
            <mxPoint x="15.542168674698795" y="18.333333333333336" as="sourcePoint" />
            <mxPoint x="15.542168674698795" as="targetPoint" />
          </mxGeometry>
        </mxCell>
        <mxCell id="ukiQFThfRHP9KPYJV5Xr-200" value="" style="endArrow=none;html=1;rounded=0;strokeWidth=3;" edge="1" parent="ukiQFThfRHP9KPYJV5Xr-190">
          <mxGeometry width="50" height="50" relative="1" as="geometry">
            <mxPoint x="37.2289156626506" y="18.333333333333336" as="sourcePoint" />
            <mxPoint x="37.2289156626506" as="targetPoint" />
          </mxGeometry>
        </mxCell>
        <mxCell id="ukiQFThfRHP9KPYJV5Xr-201" value="" style="endArrow=none;html=1;rounded=0;strokeWidth=3;" edge="1" parent="ukiQFThfRHP9KPYJV5Xr-190">
          <mxGeometry width="50" height="50" relative="1" as="geometry">
            <mxPoint x="42.28915662650602" y="18.333333333333336" as="sourcePoint" />
            <mxPoint x="42.28915662650602" as="targetPoint" />
          </mxGeometry>
        </mxCell>
        <mxCell id="ukiQFThfRHP9KPYJV5Xr-202" value="" style="endArrow=none;html=1;rounded=0;strokeWidth=3;" edge="1" parent="ukiQFThfRHP9KPYJV5Xr-190">
          <mxGeometry width="50" height="50" relative="1" as="geometry">
            <mxPoint x="29.27710843373494" y="36.66666666666667" as="sourcePoint" />
            <mxPoint x="29.27710843373494" y="18.333333333333336" as="targetPoint" />
          </mxGeometry>
        </mxCell>
        <mxCell id="ukiQFThfRHP9KPYJV5Xr-203" value="" style="endArrow=none;html=1;rounded=0;strokeWidth=3;" edge="1" parent="ukiQFThfRHP9KPYJV5Xr-190">
          <mxGeometry width="50" height="50" relative="1" as="geometry">
            <mxPoint x="43.01204819277109" y="54.38888888888889" as="sourcePoint" />
            <mxPoint x="43.01204819277109" y="36.05555555555556" as="targetPoint" />
          </mxGeometry>
        </mxCell>
        <mxCell id="ukiQFThfRHP9KPYJV5Xr-204" value="" style="endArrow=none;html=1;rounded=0;strokeWidth=2;" edge="1" parent="ukiQFThfRHP9KPYJV5Xr-190">
          <mxGeometry width="50" height="50" relative="1" as="geometry">
            <mxPoint y="0.3055555555555555" as="sourcePoint" />
            <mxPoint x="60" y="0.3055555555555555" as="targetPoint" />
          </mxGeometry>
        </mxCell>
        <mxCell id="ukiQFThfRHP9KPYJV5Xr-205" value="" style="group" vertex="1" connectable="0" parent="ukiQFThfRHP9KPYJV5Xr-183">
          <mxGeometry x="160" y="190" width="78" height="120" as="geometry" />
        </mxCell>
        <mxCell id="ukiQFThfRHP9KPYJV5Xr-206" value="" style="sketch=0;outlineConnect=0;fontColor=#232F3E;gradientColor=none;fillColor=#000000;strokeColor=none;dashed=0;verticalLabelPosition=bottom;verticalAlign=top;align=center;html=1;fontSize=12;fontStyle=0;aspect=fixed;pointerEvents=1;shape=mxgraph.aws4.mq_broker;" vertex="1" parent="ukiQFThfRHP9KPYJV5Xr-205">
          <mxGeometry width="78" height="69" as="geometry" />
        </mxCell>
        <mxCell id="ukiQFThfRHP9KPYJV5Xr-207" value="&lt;font face=&quot;Nova Round&quot;&gt;&lt;b&gt;Integration&lt;/b&gt;&lt;/font&gt;&lt;div&gt;&lt;font face=&quot;Nova Round&quot;&gt;&lt;b&gt;Engine&lt;/b&gt;&lt;/font&gt;&lt;/div&gt;" style="text;html=1;align=center;verticalAlign=middle;whiteSpace=wrap;rounded=0;" vertex="1" parent="ukiQFThfRHP9KPYJV5Xr-205">
          <mxGeometry x="4" y="70" width="70" height="50" as="geometry" />
        </mxCell>
        <mxCell id="ukiQFThfRHP9KPYJV5Xr-208" value="&lt;font face=&quot;Nova Round&quot;&gt;&lt;b&gt;IE&lt;/b&gt;&lt;/font&gt;&lt;div&gt;&lt;font face=&quot;Nova Round&quot;&gt;&lt;b&gt;DW&lt;/b&gt;&lt;/font&gt;&lt;/div&gt;" style="shape=cylinder3;whiteSpace=wrap;html=1;boundedLbl=1;backgroundOutline=1;size=15;strokeWidth=3;" vertex="1" parent="ukiQFThfRHP9KPYJV5Xr-183">
          <mxGeometry x="58" y="90" width="60" height="80" as="geometry" />
        </mxCell>
        <mxCell id="ukiQFThfRHP9KPYJV5Xr-209" value="" style="endArrow=classic;html=1;rounded=1;strokeWidth=3;strokeColor=default;curved=0;" edge="1" parent="ukiQFThfRHP9KPYJV5Xr-183">
          <mxGeometry width="50" height="50" relative="1" as="geometry">
            <mxPoint x="124.78999999999996" y="143" as="sourcePoint" />
            <mxPoint x="197.78999999999996" y="183" as="targetPoint" />
            <Array as="points">
              <mxPoint x="197.78999999999996" y="143" />
            </Array>
          </mxGeometry>
        </mxCell>
        <mxCell id="ukiQFThfRHP9KPYJV5Xr-210" value="mhoxiedblive01" style="text;html=1;align=center;verticalAlign=middle;whiteSpace=wrap;rounded=0;fontFamily=Nova Round;fontSize=21;fontStyle=1;container=0;" vertex="1" parent="ukiQFThfRHP9KPYJV5Xr-183">
          <mxGeometry x="45" y="40" width="193" height="30" as="geometry" />
        </mxCell>
        <mxCell id="ukiQFThfRHP9KPYJV5Xr-211" value="" style="rounded=1;whiteSpace=wrap;html=1;opacity=50;strokeWidth=3;arcSize=8;" vertex="1" parent="1">
          <mxGeometry x="2190" y="-1100" width="306" height="240" as="geometry" />
        </mxCell>
        <mxCell id="ukiQFThfRHP9KPYJV5Xr-212" value="" style="group" vertex="1" connectable="0" parent="1">
          <mxGeometry x="2230" y="-1080" width="213" height="200" as="geometry" />
        </mxCell>
        <mxCell id="ukiQFThfRHP9KPYJV5Xr-213" value="" style="rounded=1;whiteSpace=wrap;html=1;arcSize=10;strokeWidth=3;container=0;" vertex="1" parent="ukiQFThfRHP9KPYJV5Xr-212">
          <mxGeometry width="213" height="200" as="geometry" />
        </mxCell>
        <mxCell id="ukiQFThfRHP9KPYJV5Xr-214" value="DBS / Spine&amp;nbsp;" style="text;html=1;align=center;verticalAlign=middle;whiteSpace=wrap;rounded=0;fontFamily=Nova Round;fontSize=21;fontStyle=1;container=0;" vertex="1" parent="ukiQFThfRHP9KPYJV5Xr-212">
          <mxGeometry x="10" y="10" width="193" height="30" as="geometry" />
        </mxCell>
        <mxCell id="ukiQFThfRHP9KPYJV5Xr-215" value="" style="group" vertex="1" connectable="0" parent="ukiQFThfRHP9KPYJV5Xr-212">
          <mxGeometry x="74" y="75" width="60" height="55" as="geometry" />
        </mxCell>
        <mxCell id="ukiQFThfRHP9KPYJV5Xr-216" value="" style="rounded=0;whiteSpace=wrap;html=1;strokeColor=none;fillColor=#CCCCCC;container=0;" vertex="1" parent="ukiQFThfRHP9KPYJV5Xr-215">
          <mxGeometry x="37.2289156626506" width="5.060240963855422" height="18.333333333333336" as="geometry" />
        </mxCell>
        <mxCell id="ukiQFThfRHP9KPYJV5Xr-217" value="" style="rounded=0;whiteSpace=wrap;html=1;strokeColor=none;fillColor=#CCCCCC;container=0;" vertex="1" parent="ukiQFThfRHP9KPYJV5Xr-215">
          <mxGeometry x="1.0843373493975903" width="14.457831325301205" height="18.333333333333336" as="geometry" />
        </mxCell>
        <mxCell id="ukiQFThfRHP9KPYJV5Xr-218" value="" style="rounded=0;whiteSpace=wrap;html=1;arcSize=20;fillColor=#4D4D4D;strokeColor=none;container=0;" vertex="1" parent="ukiQFThfRHP9KPYJV5Xr-215">
          <mxGeometry x="15.542168674698795" width="21.686746987951807" height="18.333333333333336" as="geometry" />
        </mxCell>
        <mxCell id="ukiQFThfRHP9KPYJV5Xr-219" value="" style="rounded=0;whiteSpace=wrap;html=1;arcSize=20;fillColor=#4D4D4D;container=0;" vertex="1" parent="ukiQFThfRHP9KPYJV5Xr-215">
          <mxGeometry x="28.554216867469876" y="18.333333333333336" width="30.361445783132528" height="18.333333333333336" as="geometry" />
        </mxCell>
        <mxCell id="ukiQFThfRHP9KPYJV5Xr-220" value="" style="rounded=1;whiteSpace=wrap;html=1;arcSize=20;fillColor=#CCCCCC;container=0;" vertex="1" parent="ukiQFThfRHP9KPYJV5Xr-215">
          <mxGeometry x="1.0843373493975903" y="36.66666666666667" width="42.65060240963855" height="18.333333333333336" as="geometry" />
        </mxCell>
        <mxCell id="ukiQFThfRHP9KPYJV5Xr-221" value="" style="endArrow=none;html=1;rounded=1;curved=0;strokeWidth=3;" edge="1" parent="ukiQFThfRHP9KPYJV5Xr-215">
          <mxGeometry width="50" height="50" relative="1" as="geometry">
            <mxPoint x="58.91566265060241" as="sourcePoint" />
            <mxPoint x="1.0843373493975903" as="targetPoint" />
            <Array as="points">
              <mxPoint x="58.91566265060241" y="55" />
              <mxPoint x="1.0843373493975903" y="55" />
            </Array>
          </mxGeometry>
        </mxCell>
        <mxCell id="ukiQFThfRHP9KPYJV5Xr-222" value="" style="endArrow=none;html=1;rounded=0;strokeWidth=3;" edge="1" parent="ukiQFThfRHP9KPYJV5Xr-215">
          <mxGeometry width="50" height="50" relative="1" as="geometry">
            <mxPoint x="1.0843373493975903" y="36.66666666666667" as="sourcePoint" />
            <mxPoint x="58.91566265060241" y="36.66666666666667" as="targetPoint" />
          </mxGeometry>
        </mxCell>
        <mxCell id="ukiQFThfRHP9KPYJV5Xr-223" value="" style="endArrow=none;html=1;rounded=0;strokeWidth=3;" edge="1" parent="ukiQFThfRHP9KPYJV5Xr-215">
          <mxGeometry width="50" height="50" relative="1" as="geometry">
            <mxPoint x="1.0843373493975903" y="18.333333333333336" as="sourcePoint" />
            <mxPoint x="58.91566265060241" y="18.333333333333336" as="targetPoint" />
          </mxGeometry>
        </mxCell>
        <mxCell id="ukiQFThfRHP9KPYJV5Xr-224" value="" style="endArrow=none;html=1;rounded=0;strokeWidth=3;" edge="1" parent="ukiQFThfRHP9KPYJV5Xr-215">
          <mxGeometry width="50" height="50" relative="1" as="geometry">
            <mxPoint x="15.542168674698795" y="18.333333333333336" as="sourcePoint" />
            <mxPoint x="15.542168674698795" as="targetPoint" />
          </mxGeometry>
        </mxCell>
        <mxCell id="ukiQFThfRHP9KPYJV5Xr-225" value="" style="endArrow=none;html=1;rounded=0;strokeWidth=3;" edge="1" parent="ukiQFThfRHP9KPYJV5Xr-215">
          <mxGeometry width="50" height="50" relative="1" as="geometry">
            <mxPoint x="37.2289156626506" y="18.333333333333336" as="sourcePoint" />
            <mxPoint x="37.2289156626506" as="targetPoint" />
          </mxGeometry>
        </mxCell>
        <mxCell id="ukiQFThfRHP9KPYJV5Xr-226" value="" style="endArrow=none;html=1;rounded=0;strokeWidth=3;" edge="1" parent="ukiQFThfRHP9KPYJV5Xr-215">
          <mxGeometry width="50" height="50" relative="1" as="geometry">
            <mxPoint x="42.28915662650602" y="18.333333333333336" as="sourcePoint" />
            <mxPoint x="42.28915662650602" as="targetPoint" />
          </mxGeometry>
        </mxCell>
        <mxCell id="ukiQFThfRHP9KPYJV5Xr-227" value="" style="endArrow=none;html=1;rounded=0;strokeWidth=3;" edge="1" parent="ukiQFThfRHP9KPYJV5Xr-215">
          <mxGeometry width="50" height="50" relative="1" as="geometry">
            <mxPoint x="29.27710843373494" y="36.66666666666667" as="sourcePoint" />
            <mxPoint x="29.27710843373494" y="18.333333333333336" as="targetPoint" />
          </mxGeometry>
        </mxCell>
        <mxCell id="ukiQFThfRHP9KPYJV5Xr-228" value="" style="endArrow=none;html=1;rounded=0;strokeWidth=3;" edge="1" parent="ukiQFThfRHP9KPYJV5Xr-215">
          <mxGeometry width="50" height="50" relative="1" as="geometry">
            <mxPoint x="43.01204819277109" y="54.38888888888889" as="sourcePoint" />
            <mxPoint x="43.01204819277109" y="36.05555555555556" as="targetPoint" />
          </mxGeometry>
        </mxCell>
        <mxCell id="ukiQFThfRHP9KPYJV5Xr-229" value="" style="endArrow=none;html=1;rounded=0;strokeWidth=2;" edge="1" parent="ukiQFThfRHP9KPYJV5Xr-215">
          <mxGeometry width="50" height="50" relative="1" as="geometry">
            <mxPoint y="0.3055555555555555" as="sourcePoint" />
            <mxPoint x="60" y="0.3055555555555555" as="targetPoint" />
          </mxGeometry>
        </mxCell>
        <mxCell id="ukiQFThfRHP9KPYJV5Xr-230" value="NHS Digital" style="text;html=1;align=center;verticalAlign=middle;whiteSpace=wrap;rounded=0;fontFamily=Nova Round;fontStyle=1;fontSize=22;textOpacity=50;textDirection=vertical-lr;" vertex="1" parent="1">
          <mxGeometry x="2455" y="-1075" width="30" height="190" as="geometry" />
        </mxCell>
        <mxCell id="ukiQFThfRHP9KPYJV5Xr-231" value="" style="endArrow=none;html=1;rounded=0;strokeWidth=3;opacity=50;" edge="1" parent="1">
          <mxGeometry width="50" height="50" relative="1" as="geometry">
            <mxPoint x="2453.67" y="-1089.5" as="sourcePoint" />
            <mxPoint x="2453.67" y="-870.5" as="targetPoint" />
          </mxGeometry>
        </mxCell>
        <mxCell id="ukiQFThfRHP9KPYJV5Xr-232" value="" style="group" vertex="1" connectable="0" parent="1">
          <mxGeometry x="2675" y="-1450" width="310" height="399" as="geometry" />
        </mxCell>
        <mxCell id="ukiQFThfRHP9KPYJV5Xr-233" value="" style="rounded=1;whiteSpace=wrap;html=1;strokeWidth=3;arcSize=10;" vertex="1" parent="ukiQFThfRHP9KPYJV5Xr-232">
          <mxGeometry width="310" height="399" as="geometry" />
        </mxCell>
        <mxCell id="ukiQFThfRHP9KPYJV5Xr-234" value="Target Systems" style="text;html=1;align=center;verticalAlign=middle;whiteSpace=wrap;rounded=0;fontFamily=Nova Round;fontSize=16;fontStyle=1" vertex="1" parent="ukiQFThfRHP9KPYJV5Xr-232">
          <mxGeometry x="29" width="240" height="50" as="geometry" />
        </mxCell>
        <mxCell id="ukiQFThfRHP9KPYJV5Xr-235" value="&lt;font face=&quot;Nova Round&quot;&gt;&lt;b&gt;ePMA&lt;/b&gt;&lt;/font&gt;" style="shape=cylinder3;whiteSpace=wrap;html=1;boundedLbl=1;backgroundOutline=1;size=15;strokeWidth=3;" vertex="1" parent="ukiQFThfRHP9KPYJV5Xr-232">
          <mxGeometry x="48" y="56" width="60" height="80" as="geometry" />
        </mxCell>
        <mxCell id="ukiQFThfRHP9KPYJV5Xr-236" value="&lt;font face=&quot;Nova Round&quot;&gt;&lt;b&gt;True&lt;/b&gt;&lt;/font&gt;&lt;div&gt;&lt;font face=&quot;Nova Round&quot;&gt;&lt;b&gt;colours&lt;/b&gt;&lt;/font&gt;&lt;/div&gt;" style="shape=cylinder3;whiteSpace=wrap;html=1;boundedLbl=1;backgroundOutline=1;size=15;strokeWidth=3;" vertex="1" parent="ukiQFThfRHP9KPYJV5Xr-232">
          <mxGeometry x="192" y="56" width="60" height="80" as="geometry" />
        </mxCell>
        <mxCell id="ukiQFThfRHP9KPYJV5Xr-237" value="&lt;font face=&quot;Nova Round&quot;&gt;&lt;b&gt;CHIS&lt;/b&gt;&lt;/font&gt;" style="shape=cylinder3;whiteSpace=wrap;html=1;boundedLbl=1;backgroundOutline=1;size=15;strokeWidth=3;" vertex="1" parent="ukiQFThfRHP9KPYJV5Xr-232">
          <mxGeometry x="158" y="136" width="60" height="80" as="geometry" />
        </mxCell>
        <mxCell id="ukiQFThfRHP9KPYJV5Xr-238" value="&lt;font face=&quot;Nova Round&quot;&gt;&lt;b&gt;Ascribe&lt;/b&gt;&lt;/font&gt;" style="shape=cylinder3;whiteSpace=wrap;html=1;boundedLbl=1;backgroundOutline=1;size=15;strokeWidth=3;" vertex="1" parent="ukiQFThfRHP9KPYJV5Xr-232">
          <mxGeometry x="119" y="56" width="60" height="80" as="geometry" />
        </mxCell>
        <mxCell id="ukiQFThfRHP9KPYJV5Xr-239" value="&lt;font face=&quot;Nova Round&quot;&gt;&lt;b&gt;POC/&lt;/b&gt;&lt;/font&gt;&lt;div&gt;&lt;font face=&quot;Nova Round&quot;&gt;&lt;b&gt;AQURE&lt;/b&gt;&lt;/font&gt;&lt;/div&gt;" style="shape=cylinder3;whiteSpace=wrap;html=1;boundedLbl=1;backgroundOutline=1;size=15;strokeWidth=3;" vertex="1" parent="ukiQFThfRHP9KPYJV5Xr-232">
          <mxGeometry x="83" y="136" width="60" height="80" as="geometry" />
        </mxCell>
        <mxCell id="ukiQFThfRHP9KPYJV5Xr-240" value="&lt;font face=&quot;Nova Round&quot;&gt;&lt;b&gt;ICS&amp;nbsp;&lt;/b&gt;&lt;/font&gt;&lt;div&gt;&lt;font face=&quot;Nova Round&quot;&gt;&lt;b&gt;- TVS&lt;/b&gt;&lt;/font&gt;&lt;/div&gt;" style="shape=cylinder3;whiteSpace=wrap;html=1;boundedLbl=1;backgroundOutline=1;size=15;strokeWidth=3;" vertex="1" parent="ukiQFThfRHP9KPYJV5Xr-232">
          <mxGeometry x="48" y="216" width="60" height="80" as="geometry" />
        </mxCell>
        <mxCell id="ukiQFThfRHP9KPYJV5Xr-241" value="&lt;font face=&quot;Nova Round&quot;&gt;&lt;b&gt;ICE&lt;/b&gt;&lt;/font&gt;" style="shape=cylinder3;whiteSpace=wrap;html=1;boundedLbl=1;backgroundOutline=1;size=15;strokeWidth=3;" vertex="1" parent="ukiQFThfRHP9KPYJV5Xr-232">
          <mxGeometry x="192" y="216" width="60" height="80" as="geometry" />
        </mxCell>
        <mxCell id="ukiQFThfRHP9KPYJV5Xr-242" value="&lt;font face=&quot;Nova Round&quot;&gt;&lt;b&gt;Docman&lt;/b&gt;&lt;/font&gt;" style="shape=cylinder3;whiteSpace=wrap;html=1;boundedLbl=1;backgroundOutline=1;size=15;strokeWidth=3;" vertex="1" parent="ukiQFThfRHP9KPYJV5Xr-232">
          <mxGeometry x="158" y="296" width="60" height="80" as="geometry" />
        </mxCell>
        <mxCell id="ukiQFThfRHP9KPYJV5Xr-243" value="&lt;font face=&quot;Nova Round&quot;&gt;&lt;b&gt;ICS&amp;nbsp;&lt;/b&gt;&lt;/font&gt;&lt;div&gt;&lt;font face=&quot;Nova Round&quot;&gt;&lt;b&gt;- BSW&lt;/b&gt;&lt;/font&gt;&lt;/div&gt;" style="shape=cylinder3;whiteSpace=wrap;html=1;boundedLbl=1;backgroundOutline=1;size=15;strokeWidth=3;" vertex="1" parent="ukiQFThfRHP9KPYJV5Xr-232">
          <mxGeometry x="119" y="216" width="60" height="80" as="geometry" />
        </mxCell>
        <mxCell id="ukiQFThfRHP9KPYJV5Xr-244" value="&lt;font face=&quot;Nova Round&quot;&gt;&lt;b&gt;HV&lt;/b&gt;&lt;/font&gt;&lt;div&gt;&lt;font face=&quot;Nova Round&quot;&gt;&lt;b&gt;Teams&lt;/b&gt;&lt;/font&gt;&lt;/div&gt;" style="shape=cylinder3;whiteSpace=wrap;html=1;boundedLbl=1;backgroundOutline=1;size=15;strokeWidth=3;" vertex="1" parent="ukiQFThfRHP9KPYJV5Xr-232">
          <mxGeometry x="83" y="296" width="60" height="80" as="geometry" />
        </mxCell>
        <mxCell id="ukiQFThfRHP9KPYJV5Xr-245" value="" style="endArrow=classic;html=1;rounded=0;strokeWidth=3;" edge="1" parent="1">
          <mxGeometry width="50" height="50" relative="1" as="geometry">
            <mxPoint x="2510" y="-1340" as="sourcePoint" />
            <mxPoint x="2650" y="-1340" as="targetPoint" />
          </mxGeometry>
        </mxCell>
        <mxCell id="ukiQFThfRHP9KPYJV5Xr-246" value="" style="endArrow=classic;html=1;rounded=1;strokeWidth=3;curved=0;" edge="1" parent="1">
          <mxGeometry width="50" height="50" relative="1" as="geometry">
            <mxPoint x="880" y="-170" as="sourcePoint" />
            <mxPoint x="1570" y="-1110" as="targetPoint" />
            <Array as="points">
              <mxPoint x="880" y="-1110" />
            </Array>
          </mxGeometry>
        </mxCell>
        <mxCell id="ukiQFThfRHP9KPYJV5Xr-247" value="" style="endArrow=classic;html=1;rounded=1;strokeWidth=3;curved=0;" edge="1" parent="1">
          <mxGeometry width="50" height="50" relative="1" as="geometry">
            <mxPoint x="899" y="-169" as="sourcePoint" />
            <mxPoint x="1960" y="-1000" as="targetPoint" />
            <Array as="points">
              <mxPoint x="900" y="-960" />
              <mxPoint x="1960" y="-960" />
            </Array>
          </mxGeometry>
        </mxCell>
        <mxCell id="ukiQFThfRHP9KPYJV5Xr-248" value="" style="endArrow=classic;html=1;rounded=1;strokeWidth=3;curved=0;" edge="1" parent="1">
          <mxGeometry width="50" height="50" relative="1" as="geometry">
            <mxPoint x="2090" y="-1100" as="sourcePoint" />
            <mxPoint x="2180" y="-950" as="targetPoint" />
            <Array as="points">
              <mxPoint x="2130" y="-1100" />
              <mxPoint x="2130" y="-950" />
            </Array>
          </mxGeometry>
        </mxCell>
        <mxCell id="ukiQFThfRHP9KPYJV5Xr-249" value="" style="endArrow=classic;html=1;rounded=1;strokeWidth=3;curved=0;" edge="1" parent="1">
          <mxGeometry width="50" height="50" relative="1" as="geometry">
            <mxPoint x="2090" y="-1100" as="sourcePoint" />
            <mxPoint x="2180" y="-1280" as="targetPoint" />
            <Array as="points">
              <mxPoint x="2130" y="-1100" />
              <mxPoint x="2130" y="-1280" />
            </Array>
          </mxGeometry>
        </mxCell>
        <mxCell id="ukiQFThfRHP9KPYJV5Xr-250" value="" style="endArrow=classic;html=1;rounded=1;strokeWidth=3;curved=0;" edge="1" parent="1">
          <mxGeometry width="50" height="50" relative="1" as="geometry">
            <mxPoint x="859" y="-170" as="sourcePoint" />
            <mxPoint x="2180" y="-1350" as="targetPoint" />
            <Array as="points">
              <mxPoint x="859" y="-1350" />
            </Array>
          </mxGeometry>
        </mxCell>
        <mxCell id="ukiQFThfRHP9KPYJV5Xr-251" value="" style="endArrow=classic;html=1;rounded=1;strokeWidth=3;exitX=1;exitY=0.5;exitDx=0;exitDy=0;exitPerimeter=0;curved=0;" edge="1" parent="1" source="ukiQFThfRHP9KPYJV5Xr-95">
          <mxGeometry width="50" height="50" relative="1" as="geometry">
            <mxPoint x="480" y="-830" as="sourcePoint" />
            <mxPoint x="1980" y="-1230" as="targetPoint" />
            <Array as="points">
              <mxPoint x="400" y="-57" />
              <mxPoint x="400" y="-1280" />
              <mxPoint x="1980" y="-1280" />
            </Array>
          </mxGeometry>
        </mxCell>
        <mxCell id="ukiQFThfRHP9KPYJV5Xr-252" value="" style="endArrow=none;html=1;rounded=0;strokeWidth=3;" edge="1" parent="1">
          <mxGeometry width="50" height="50" relative="1" as="geometry">
            <mxPoint x="-120" y="-50" as="sourcePoint" />
            <mxPoint x="50" y="-50" as="targetPoint" />
          </mxGeometry>
        </mxCell>
        <mxCell id="ukiQFThfRHP9KPYJV5Xr-253" value="" style="endArrow=none;html=1;rounded=0;strokeWidth=3;" edge="1" parent="1">
          <mxGeometry width="50" height="50" relative="1" as="geometry">
            <mxPoint x="-80" y="40" as="sourcePoint" />
            <mxPoint x="120" y="40" as="targetPoint" />
          </mxGeometry>
        </mxCell>
        <mxCell id="ukiQFThfRHP9KPYJV5Xr-254" value="" style="endArrow=none;html=1;rounded=1;strokeWidth=3;entryX=0.633;entryY=-0.02;entryDx=0;entryDy=0;entryPerimeter=0;curved=0;" edge="1" parent="1" target="ukiQFThfRHP9KPYJV5Xr-94">
          <mxGeometry width="50" height="50" relative="1" as="geometry">
            <mxPoint x="-120" y="-260" as="sourcePoint" />
            <mxPoint x="240" y="-260" as="targetPoint" />
            <Array as="points">
              <mxPoint x="230" y="-260" />
            </Array>
          </mxGeometry>
        </mxCell>
        <mxCell id="ukiQFThfRHP9KPYJV5Xr-255" value="" style="endArrow=classic;html=1;rounded=1;strokeWidth=3;curved=0;" edge="1" parent="1">
          <mxGeometry width="50" height="50" relative="1" as="geometry">
            <mxPoint x="-80" y="40" as="sourcePoint" />
            <mxPoint x="2180" y="-1400" as="targetPoint" />
            <Array as="points">
              <mxPoint x="-120" y="40" />
              <mxPoint x="-120" y="-1400" />
            </Array>
          </mxGeometry>
        </mxCell>
        <mxCell id="ukiQFThfRHP9KPYJV5Xr-256" value="On Prem" style="text;html=1;align=center;verticalAlign=middle;whiteSpace=wrap;rounded=0;fontFamily=Nova Round;fontStyle=1;fontSize=22;textOpacity=50;opacity=50;" vertex="1" parent="1">
          <mxGeometry x="1710" y="-1485" width="230" height="30" as="geometry" />
        </mxCell>
        <mxCell id="ukiQFThfRHP9KPYJV5Xr-257" value="" style="endArrow=none;html=1;rounded=0;strokeWidth=3;textOpacity=50;opacity=50;" edge="1" parent="1">
          <mxGeometry width="50" height="50" relative="1" as="geometry">
            <mxPoint x="1560" y="-1451" as="sourcePoint" />
            <mxPoint x="2090" y="-1451" as="targetPoint" />
          </mxGeometry>
        </mxCell>
        <mxCell id="ukiQFThfRHP9KPYJV5Xr-258" value="On Prem" style="text;html=1;align=center;verticalAlign=middle;whiteSpace=wrap;rounded=0;fontFamily=Nova Round;fontStyle=1;fontSize=22;textOpacity=50;opacity=50;" vertex="1" parent="1">
          <mxGeometry x="1090" y="760" width="230" height="30" as="geometry" />
        </mxCell>
        <mxCell id="ukiQFThfRHP9KPYJV5Xr-259" value="" style="endArrow=none;html=1;rounded=0;strokeWidth=3;textOpacity=50;opacity=50;" edge="1" parent="1">
          <mxGeometry width="50" height="50" relative="1" as="geometry">
            <mxPoint x="830" y="750" as="sourcePoint" />
            <mxPoint x="1540" y="750" as="targetPoint" />
          </mxGeometry>
        </mxCell>
      </root>
    </mxGraphModel>
  </diagram>
</mxfile>
